<svg width="353" height="212" viewBox="0 0 353 212" fill="none" xmlns="http://www.w3.org/2000/svg">
<g clip-path="url(#clip0_3415_2320)">
<rect width="353" height="212" rx="10" fill="#0F172A"/>
<g clip-path="url(#clip1_3415_2320)">
<rect width="353" height="212" rx="10" fill="#0F172A"/>
<mask id="path-5-outside-1_3415_2320" maskUnits="userSpaceOnUse" x="30" y="167" width="54" height="15" fill="black">
<rect fill="white" x="30" y="167" width="54" height="15"/>
<path d="M35.292 181.216C34.2 181.216 33.282 181.024 32.538 180.64C31.794 180.256 31.182 179.746 30.702 179.11L31.998 177.868C32.478 178.444 32.988 178.87 33.528 179.146C34.068 179.41 34.68 179.542 35.364 179.542C36.156 179.542 36.762 179.362 37.182 179.002C37.614 178.642 37.83 178.126 37.83 177.454C37.83 176.914 37.674 176.5 37.362 176.212C37.05 175.912 36.516 175.696 35.76 175.564L34.392 175.348C33.792 175.252 33.288 175.096 32.88 174.88C32.472 174.652 32.142 174.388 31.89 174.088C31.638 173.776 31.452 173.434 31.332 173.062C31.224 172.678 31.17 172.276 31.17 171.856C31.17 170.668 31.554 169.768 32.322 169.156C33.09 168.532 34.146 168.22 35.49 168.22C36.486 168.22 37.332 168.382 38.028 168.706C38.736 169.018 39.306 169.462 39.738 170.038L38.478 171.298C38.13 170.878 37.716 170.542 37.236 170.29C36.768 170.026 36.186 169.894 35.49 169.894C34.746 169.894 34.176 170.056 33.78 170.38C33.396 170.692 33.204 171.154 33.204 171.766C33.204 172.282 33.354 172.69 33.654 172.99C33.966 173.278 34.512 173.488 35.292 173.62L36.624 173.854C37.752 174.058 38.574 174.472 39.09 175.096C39.606 175.708 39.864 176.458 39.864 177.346C39.864 177.922 39.762 178.45 39.558 178.93C39.366 179.41 39.072 179.818 38.676 180.154C38.292 180.49 37.812 180.754 37.236 180.946C36.672 181.126 36.024 181.216 35.292 181.216ZM45.941 181V168.436H53.807V170.128H47.957V173.782H53.591V175.474H47.957V179.308H53.807V181H45.941ZM60.7299 181V168.436H62.7459V179.308H68.4699V181H60.7299ZM74.7269 181V168.436H82.8089V170.128H76.7429V173.782H82.2509V175.474H76.7429V181H74.7269Z"/>
</mask>
<path d="M35.292 181.216C34.2 181.216 33.282 181.024 32.538 180.64C31.794 180.256 31.182 179.746 30.702 179.11L31.998 177.868C32.478 178.444 32.988 178.87 33.528 179.146C34.068 179.41 34.68 179.542 35.364 179.542C36.156 179.542 36.762 179.362 37.182 179.002C37.614 178.642 37.83 178.126 37.83 177.454C37.83 176.914 37.674 176.5 37.362 176.212C37.05 175.912 36.516 175.696 35.76 175.564L34.392 175.348C33.792 175.252 33.288 175.096 32.88 174.88C32.472 174.652 32.142 174.388 31.89 174.088C31.638 173.776 31.452 173.434 31.332 173.062C31.224 172.678 31.17 172.276 31.17 171.856C31.17 170.668 31.554 169.768 32.322 169.156C33.09 168.532 34.146 168.22 35.49 168.22C36.486 168.22 37.332 168.382 38.028 168.706C38.736 169.018 39.306 169.462 39.738 170.038L38.478 171.298C38.13 170.878 37.716 170.542 37.236 170.29C36.768 170.026 36.186 169.894 35.49 169.894C34.746 169.894 34.176 170.056 33.78 170.38C33.396 170.692 33.204 171.154 33.204 171.766C33.204 172.282 33.354 172.69 33.654 172.99C33.966 173.278 34.512 173.488 35.292 173.62L36.624 173.854C37.752 174.058 38.574 174.472 39.09 175.096C39.606 175.708 39.864 176.458 39.864 177.346C39.864 177.922 39.762 178.45 39.558 178.93C39.366 179.41 39.072 179.818 38.676 180.154C38.292 180.49 37.812 180.754 37.236 180.946C36.672 181.126 36.024 181.216 35.292 181.216ZM45.941 181V168.436H53.807V170.128H47.957V173.782H53.591V175.474H47.957V179.308H53.807V181H45.941ZM60.7299 181V168.436H62.7459V179.308H68.4699V181H60.7299ZM74.7269 181V168.436H82.8089V170.128H76.7429V173.782H82.2509V175.474H76.7429V181H74.7269Z" fill="url(#paint0_linear_3415_2320)"/>
<path d="M32.538 180.64L32.3087 181.084L32.538 180.64ZM30.702 179.11L30.356 178.749L30.3029 179.411L30.702 179.11ZM31.998 177.868L32.3821 177.548L31.652 177.507L31.998 177.868ZM33.528 179.146L33.3004 179.591L33.3084 179.595L33.528 179.146ZM37.182 179.002L36.8619 178.618L36.8566 178.622L37.182 179.002ZM37.362 176.212L37.0154 176.572L37.0229 176.579L37.362 176.212ZM35.76 175.564L35.846 175.071L35.838 175.07L35.76 175.564ZM34.392 175.348L34.313 175.842L34.314 175.842L34.392 175.348ZM32.88 174.88L32.636 175.317L32.6461 175.322L32.88 174.88ZM31.89 174.088L31.501 174.402L31.5071 174.41L31.89 174.088ZM31.332 173.062L30.8507 173.197L30.8561 173.216L31.332 173.062ZM32.322 169.156L32.6336 169.547L32.6373 169.544L32.322 169.156ZM38.028 168.706L37.8169 169.159L37.8264 169.164L38.028 168.706ZM39.738 170.038L40.0916 170.392L40.138 169.738L39.738 170.038ZM38.478 171.298L38.093 171.617L38.8316 171.652L38.478 171.298ZM37.236 170.29L36.9903 170.725L37.0036 170.733L37.236 170.29ZM33.78 170.38L34.0953 170.768L34.0966 170.767L33.78 170.38ZM33.654 172.99L33.3004 173.344L33.3149 173.357L33.654 172.99ZM35.292 173.62L35.3785 173.128L35.3754 173.127L35.292 173.62ZM36.624 173.854L36.713 173.362L36.7105 173.362L36.624 173.854ZM39.09 175.096L38.7047 175.415L38.7077 175.418L39.09 175.096ZM39.558 178.93L39.0977 178.734L39.0938 178.744L39.558 178.93ZM38.676 180.154L38.3525 179.773L38.3467 179.778L38.676 180.154ZM37.236 180.946L37.388 181.422L37.3941 181.42L37.236 180.946ZM35.292 180.716C34.2564 180.716 33.4222 180.534 32.7673 180.196L32.3087 181.084C33.1418 181.514 34.1437 181.716 35.292 181.716V180.716ZM32.7673 180.196C32.0865 179.844 31.5337 179.382 31.1011 178.809L30.3029 179.411C30.8303 180.11 31.5015 180.668 32.3087 181.084L32.7673 180.196ZM31.048 179.471L32.344 178.229L31.652 177.507L30.356 178.749L31.048 179.471ZM31.6139 178.188C32.1272 178.804 32.6879 179.278 33.3004 179.591L33.7556 178.701C33.2881 178.462 32.8288 178.084 32.3821 177.548L31.6139 178.188ZM33.3084 179.595C33.9257 179.897 34.6144 180.042 35.364 180.042V179.042C34.7456 179.042 34.2103 178.923 33.7476 178.697L33.3084 179.595ZM35.364 180.042C36.2246 180.042 36.9645 179.847 37.5074 179.382L36.8566 178.622C36.5595 178.877 36.0874 179.042 35.364 179.042V180.042ZM37.5021 179.386C38.0706 178.912 38.33 178.242 38.33 177.454H37.33C37.33 178.01 37.1574 178.372 36.8619 178.618L37.5021 179.386ZM38.33 177.454C38.33 176.815 38.142 176.252 37.7011 175.845L37.0229 176.579C37.206 176.748 37.33 177.013 37.33 177.454H38.33ZM37.7086 175.852C37.2881 175.447 36.6337 175.209 35.846 175.071L35.674 176.057C36.3983 176.183 36.8119 176.377 37.0154 176.572L37.7086 175.852ZM35.838 175.07L34.47 174.854L34.314 175.842L35.682 176.058L35.838 175.07ZM34.471 174.854C33.909 174.764 33.4609 174.622 33.1139 174.438L32.6461 175.322C33.1151 175.57 33.675 175.74 34.313 175.842L34.471 174.854ZM33.1239 174.444C32.7588 174.24 32.4792 174.012 32.2729 173.766L31.5071 174.41C31.8048 174.764 32.1852 175.064 32.6361 175.316L33.1239 174.444ZM32.279 173.774C32.0645 173.508 31.9085 173.221 31.8079 172.908L30.8561 173.216C30.9955 173.647 31.2115 174.044 31.501 174.402L32.279 173.774ZM31.8133 172.927C31.7184 172.589 31.67 172.233 31.67 171.856H30.67C30.67 172.319 30.7296 172.767 30.8507 173.197L31.8133 172.927ZM31.67 171.856C31.67 170.785 32.0098 170.044 32.6336 169.547L32.0104 168.765C31.0982 169.492 30.67 170.551 30.67 171.856H31.67ZM32.6373 169.544C33.2888 169.015 34.2198 168.72 35.49 168.72V167.72C34.0722 167.72 32.8912 168.049 32.0067 168.768L32.6373 169.544ZM35.49 168.72C36.4339 168.72 37.2037 168.874 37.817 169.159L38.239 168.253C37.4603 167.89 36.5381 167.72 35.49 167.72V168.72ZM37.8264 169.164C38.4619 169.444 38.9613 169.836 39.338 170.338L40.138 169.738C39.6507 169.088 39.0101 168.592 38.2296 168.248L37.8264 169.164ZM39.3844 169.684L38.1244 170.944L38.8316 171.652L40.0916 170.392L39.3844 169.684ZM38.863 170.979C38.4731 170.508 38.0073 170.13 37.4684 169.847L37.0036 170.733C37.4247 170.954 37.7869 171.248 38.093 171.617L38.863 170.979ZM37.4817 169.855C36.9197 169.538 36.2473 169.394 35.49 169.394V170.394C36.1247 170.394 36.6163 170.514 36.9903 170.725L37.4817 169.855ZM35.49 169.394C34.6815 169.394 33.9815 169.569 33.4634 169.993L34.0966 170.767C34.3705 170.543 34.8105 170.394 35.49 170.394V169.394ZM33.4647 169.992C32.9365 170.421 32.704 171.043 32.704 171.766H33.704C33.704 171.265 33.8555 170.963 34.0953 170.768L33.4647 169.992ZM32.704 171.766C32.704 172.384 32.8871 172.93 33.3004 173.344L34.0076 172.636C33.8209 172.45 33.704 172.18 33.704 171.766H32.704ZM33.3149 173.357C33.7369 173.747 34.4034 173.977 35.2086 174.113L35.3754 173.127C34.6206 172.999 34.1951 172.809 33.9931 172.623L33.3149 173.357ZM35.2055 174.112L36.5375 174.346L36.7105 173.362L35.3785 173.128L35.2055 174.112ZM36.535 174.346C37.5945 174.538 38.2899 174.913 38.7047 175.415L39.4753 174.777C38.8581 174.031 37.9095 173.578 36.713 173.362L36.535 174.346ZM38.7077 175.418C39.1393 175.93 39.364 176.562 39.364 177.346H40.364C40.364 176.354 40.0727 175.486 39.4723 174.774L38.7077 175.418ZM39.364 177.346C39.364 177.862 39.2729 178.322 39.0978 178.734L40.0182 179.126C40.2511 178.578 40.364 177.982 40.364 177.346H39.364ZM39.0938 178.744C38.9322 179.148 38.6867 179.489 38.3525 179.773L38.9995 180.535C39.4573 180.147 39.7998 179.672 40.0222 179.116L39.0938 178.744ZM38.3467 179.778C38.0213 180.063 37.6026 180.297 37.0779 180.472L37.3941 181.42C38.0214 181.211 38.5627 180.917 39.0053 180.53L38.3467 179.778ZM37.084 180.47C36.5791 180.631 35.9841 180.716 35.292 180.716V181.716C36.0639 181.716 36.7649 181.621 37.388 181.422L37.084 180.47ZM45.941 181H45.441L45.941 181.5V181ZM45.941 168.436V167.936L45.441 168.436H45.941ZM53.807 168.436H54.307L53.807 167.936V168.436ZM53.807 170.128V170.628L54.307 170.128H53.807ZM47.957 170.128V169.628L47.457 170.128H47.957ZM47.957 173.782H47.457L47.957 174.282V173.782ZM53.591 173.782H54.091L53.591 173.282V173.782ZM53.591 175.474V175.974L54.091 175.474H53.591ZM47.957 175.474V174.974L47.457 175.474H47.957ZM47.957 179.308H47.457L47.957 179.808V179.308ZM53.807 179.308H54.307L53.807 178.808V179.308ZM53.807 181V181.5L54.307 181H53.807ZM46.441 181V168.436H45.441V181H46.441ZM45.941 168.936H53.807V167.936H45.941V168.936ZM53.307 168.436V170.128H54.307V168.436H53.307ZM53.807 169.628H47.957V170.628H53.807V169.628ZM47.457 170.128V173.782H48.457V170.128H47.457ZM47.957 174.282H53.591V173.282H47.957V174.282ZM53.091 173.782V175.474H54.091V173.782H53.091ZM53.591 174.974H47.957V175.974H53.591V174.974ZM47.457 175.474V179.308H48.457V175.474H47.457ZM47.957 179.808H53.807V178.808H47.957V179.808ZM53.307 179.308V181H54.307V179.308H53.307ZM53.807 180.5H45.941V181.5H53.807V180.5ZM60.7299 181H60.2299L60.7299 181.5V181ZM60.7299 168.436V167.936L60.2299 168.436H60.7299ZM62.7459 168.436H63.2459L62.7459 167.936V168.436ZM62.7459 179.308H62.2459L62.7459 179.808V179.308ZM68.4699 179.308H68.9699L68.4699 178.808V179.308ZM68.4699 181V181.5L68.9699 181H68.4699ZM61.2299 181V168.436H60.2299V181H61.2299ZM60.7299 168.936H62.7459V167.936H60.7299V168.936ZM62.2459 168.436V179.308H63.2459V168.436H62.2459ZM62.7459 179.808H68.4699V178.808H62.7459V179.808ZM67.9699 179.308V181H68.9699V179.308H67.9699ZM68.4699 180.5H60.7299V181.5H68.4699V180.5ZM74.7269 181H74.2269L74.7269 181.5V181ZM74.7269 168.436V167.936L74.2269 168.436H74.7269ZM82.8089 168.436H83.3089L82.8089 167.936V168.436ZM82.8089 170.128V170.628L83.3089 170.128H82.8089ZM76.7429 170.128V169.628L76.2429 170.128H76.7429ZM76.7429 173.782H76.2429L76.7429 174.282V173.782ZM82.2509 173.782H82.7509L82.2509 173.282V173.782ZM82.2509 175.474V175.974L82.7509 175.474H82.2509ZM76.7429 175.474V174.974L76.2429 175.474H76.7429ZM76.7429 181V181.5L77.2429 181H76.7429ZM75.2269 181V168.436H74.2269V181H75.2269ZM74.7269 168.936H82.8089V167.936H74.7269V168.936ZM82.3089 168.436V170.128H83.3089V168.436H82.3089ZM82.8089 169.628H76.7429V170.628H82.8089V169.628ZM76.2429 170.128V173.782H77.2429V170.128H76.2429ZM76.7429 174.282H82.2509V173.282H76.7429V174.282ZM81.7509 173.782V175.474H82.7509V173.782H81.7509ZM82.2509 174.974H76.7429V175.974H82.2509V174.974ZM76.2429 175.474V181H77.2429V175.474H76.2429ZM76.7429 180.5H74.7269V181.5H76.7429V180.5Z" fill="url(#paint1_linear_3415_2320)" mask="url(#path-5-outside-1_3415_2320)"/>
<mask id="path-7-outside-2_3415_2320" maskUnits="userSpaceOnUse" x="30" y="138" width="26" height="15" fill="black">
<rect fill="white" x="30" y="138" width="26" height="15"/>
<path d="M39.936 150.506V152H30.864V150.452L37.74 140.93H31.152V139.436H39.648V140.984L32.772 150.506H39.936ZM52.871 152L49.271 146.024L47.597 148.04V152H45.851V139.436H47.597V145.736H47.669L49.271 143.648L52.691 139.436H54.743L50.459 144.728L54.887 152H52.871Z"/>
</mask>
<path d="M39.936 150.506H40.436C40.436 150.23 40.2121 150.006 39.936 150.006V150.506ZM39.936 152V152.5C40.2121 152.5 40.436 152.276 40.436 152H39.936ZM30.864 152H30.364C30.364 152.276 30.5879 152.5 30.864 152.5V152ZM30.864 150.452L30.4586 150.159C30.3971 150.244 30.364 150.347 30.364 150.452H30.864ZM37.74 140.93L38.1454 141.223C38.2553 141.07 38.2707 140.87 38.1852 140.702C38.0997 140.535 37.9278 140.43 37.74 140.43V140.93ZM31.152 140.93H30.652C30.652 141.206 30.8759 141.43 31.152 141.43V140.93ZM31.152 139.436V138.936C30.8759 138.936 30.652 139.16 30.652 139.436H31.152ZM39.648 139.436H40.148C40.148 139.16 39.9241 138.936 39.648 138.936V139.436ZM39.648 140.984L40.0534 141.277C40.1149 141.192 40.148 141.089 40.148 140.984H39.648ZM32.772 150.506L32.3666 150.213C32.2567 150.366 32.2413 150.566 32.3268 150.734C32.4123 150.901 32.5842 151.006 32.772 151.006V150.506ZM39.436 150.506V152H40.436V150.506H39.436ZM39.936 151.5H30.864V152.5H39.936V151.5ZM31.364 152V150.452H30.364V152H31.364ZM31.2694 150.745L38.1454 141.223L37.3346 140.637L30.4586 150.159L31.2694 150.745ZM37.74 140.43H31.152V141.43H37.74V140.43ZM31.652 140.93V139.436H30.652V140.93H31.652ZM31.152 139.936H39.648V138.936H31.152V139.936ZM39.148 139.436V140.984H40.148V139.436H39.148ZM39.2426 140.691L32.3666 150.213L33.1774 150.799L40.0534 141.277L39.2426 140.691ZM32.772 151.006H39.936V150.006H32.772V151.006ZM52.871 152L52.4427 152.258C52.5331 152.408 52.6957 152.5 52.871 152.5V152ZM49.271 146.024L49.6993 145.766C49.6157 145.627 49.4701 145.538 49.3086 145.525C49.1471 145.513 48.9898 145.58 48.8863 145.705L49.271 146.024ZM47.597 148.04L47.2123 147.721C47.1378 147.81 47.097 147.923 47.097 148.04H47.597ZM47.597 152V152.5C47.8731 152.5 48.097 152.276 48.097 152H47.597ZM45.851 152H45.351C45.351 152.276 45.5748 152.5 45.851 152.5V152ZM45.851 139.436V138.936C45.5748 138.936 45.351 139.16 45.351 139.436H45.851ZM47.597 139.436H48.097C48.097 139.16 47.8731 138.936 47.597 138.936V139.436ZM47.597 145.736H47.097C47.097 146.012 47.3208 146.236 47.597 146.236V145.736ZM47.669 145.736V146.236C47.8244 146.236 47.971 146.164 48.0657 146.04L47.669 145.736ZM49.271 143.648L48.8827 143.333L48.8743 143.344L49.271 143.648ZM52.691 139.436V138.936C52.5403 138.936 52.3978 139.004 52.3028 139.121L52.691 139.436ZM54.743 139.436L55.1316 139.751C55.2529 139.601 55.2772 139.395 55.1942 139.221C55.1113 139.047 54.9357 138.936 54.743 138.936V139.436ZM50.459 144.728L50.0703 144.413C49.9374 144.578 49.922 144.808 50.0319 144.988L50.459 144.728ZM54.887 152V152.5C55.0677 152.5 55.2343 152.402 55.3229 152.245C55.4114 152.087 55.408 151.894 55.314 151.74L54.887 152ZM53.2993 151.742L49.6993 145.766L48.8427 146.282L52.4427 152.258L53.2993 151.742ZM48.8863 145.705L47.2123 147.721L47.9816 148.359L49.6556 146.343L48.8863 145.705ZM47.097 148.04V152H48.097V148.04H47.097ZM47.597 151.5H45.851V152.5H47.597V151.5ZM46.351 152V139.436H45.351V152H46.351ZM45.851 139.936H47.597V138.936H45.851V139.936ZM47.097 139.436V145.736H48.097V139.436H47.097ZM47.597 146.236H47.669V145.236H47.597V146.236ZM48.0657 146.04L49.6677 143.952L48.8743 143.344L47.2723 145.432L48.0657 146.04ZM49.6591 143.963L53.0791 139.751L52.3028 139.121L48.8828 143.333L49.6591 143.963ZM52.691 139.936H54.743V138.936H52.691V139.936ZM54.3543 139.121L50.0703 144.413L50.8476 145.043L55.1316 139.751L54.3543 139.121ZM50.0319 144.988L54.4599 152.26L55.314 151.74L50.886 144.468L50.0319 144.988ZM54.887 151.5H52.871V152.5H54.887V151.5Z" fill="url(#paint2_linear_3415_2320)" mask="url(#path-7-outside-2_3415_2320)"/>
<g filter="url(#filter0_d_3415_2320)">
<mask id="path-9-outside-3_3415_2320" maskUnits="userSpaceOnUse" x="30" y="31" width="28" height="18" fill="black">
<rect fill="white" x="30" y="31" width="28" height="18"/>
<path fill-rule="evenodd" clip-rule="evenodd" d="M31 34C31 32.8954 31.8954 32 33 32L55 32C56.1046 32 57 32.8954 57 34V36.9066C57 38.0112 56.1046 38.9066 55 38.9066H50.6265C49.6797 38.9066 48.8972 38.2144 48.4224 37.3952C47.5362 35.866 45.8819 34.8375 43.9873 34.8375C42.0928 34.8375 40.4384 35.866 39.5522 37.3952C39.0775 38.2144 38.295 38.9066 37.3481 38.9066H33C31.8954 38.9066 31 38.0112 31 36.9066V34ZM39.6545 42.6935C39.1713 41.9292 38.4123 41.2953 37.508 41.2953H33C31.8954 41.2953 31 42.1907 31 43.2953V46.2019C31 47.3065 31.8954 48.2019 33 48.2019H55C56.1046 48.2019 57 47.3065 57 46.2019V43.2953C57 42.1907 56.1046 41.2953 55 41.2953H50.4666C49.5623 41.2953 48.8034 41.9292 48.3201 42.6935C47.4126 44.1291 45.8113 45.0823 43.9873 45.0823C42.1634 45.0823 40.5621 44.1291 39.6545 42.6935Z"/>
</mask>
<path fill-rule="evenodd" clip-rule="evenodd" d="M31 34C31 32.8954 31.8954 32 33 32L55 32C56.1046 32 57 32.8954 57 34V36.9066C57 38.0112 56.1046 38.9066 55 38.9066H50.6265C49.6797 38.9066 48.8972 38.2144 48.4224 37.3952C47.5362 35.866 45.8819 34.8375 43.9873 34.8375C42.0928 34.8375 40.4384 35.866 39.5522 37.3952C39.0775 38.2144 38.295 38.9066 37.3481 38.9066H33C31.8954 38.9066 31 38.0112 31 36.9066V34ZM39.6545 42.6935C39.1713 41.9292 38.4123 41.2953 37.508 41.2953H33C31.8954 41.2953 31 42.1907 31 43.2953V46.2019C31 47.3065 31.8954 48.2019 33 48.2019H55C56.1046 48.2019 57 47.3065 57 46.2019V43.2953C57 42.1907 56.1046 41.2953 55 41.2953H50.4666C49.5623 41.2953 48.8034 41.9292 48.3201 42.6935C47.4126 44.1291 45.8113 45.0823 43.9873 45.0823C42.1634 45.0823 40.5621 44.1291 39.6545 42.6935Z" fill="url(#paint3_linear_3415_2320)"/>
<path d="M48.3201 42.6935L47.7689 42.345L48.3201 42.6935ZM55 31.3478L33 31.3478V32.6522H55V31.3478ZM57.6522 36.9066V34H56.3478V36.9066H57.6522ZM50.6265 39.5588H55V38.2544H50.6265V39.5588ZM43.9873 35.4897C45.6398 35.4897 47.0838 36.3861 47.8581 37.7222L48.9867 37.0682C47.9887 35.346 46.1239 34.1853 43.9873 34.1853V35.4897ZM40.1165 37.7222C40.8909 36.3861 42.3348 35.4897 43.9873 35.4897V34.1853C41.8507 34.1853 39.986 35.346 38.9879 37.0682L40.1165 37.7222ZM33 39.5588H37.3481V38.2544H33V39.5588ZM30.3478 34V36.9066H31.6522V34H30.3478ZM37.508 40.6431H33V41.9475H37.508V40.6431ZM30.3478 43.2953V46.2019H31.6522V43.2953H30.3478ZM33 48.8541H55V47.5497H33V48.8541ZM57.6522 46.2019V43.2953H56.3478V46.2019H57.6522ZM55 40.6431H50.4666V41.9475H55V40.6431ZM47.7689 42.345C46.9758 43.5994 45.5783 44.4301 43.9873 44.4301V45.7346C46.0442 45.7346 47.8493 44.6587 48.8714 43.0421L47.7689 42.345ZM43.9873 44.4301C42.3963 44.4301 40.9989 43.5994 40.2058 42.345L39.1032 43.0421C40.1253 44.6587 41.9304 45.7346 43.9873 45.7346V44.4301ZM50.4666 40.6431C49.243 40.6431 48.3096 41.4898 47.7689 42.345L48.8714 43.0421C49.2972 42.3686 49.8816 41.9475 50.4666 41.9475V40.6431ZM55 48.8541C56.4648 48.8541 57.6522 47.6667 57.6522 46.2019H56.3478C56.3478 46.9463 55.7444 47.5497 55 47.5497V48.8541ZM30.3478 46.2019C30.3478 47.6667 31.5352 48.8541 33 48.8541V47.5497C32.2556 47.5497 31.6522 46.9463 31.6522 46.2019H30.3478ZM33 40.6431C31.5352 40.6431 30.3478 41.8305 30.3478 43.2953H31.6522C31.6522 42.5509 32.2556 41.9475 33 41.9475V40.6431ZM37.508 41.9475C38.0931 41.9475 38.6775 42.3686 39.1032 43.0421L40.2058 42.345C39.6651 41.4898 38.7316 40.6431 37.508 40.6431V41.9475ZM33 38.2544C32.2556 38.2544 31.6522 37.651 31.6522 36.9066H30.3478C30.3478 38.3714 31.5352 39.5588 33 39.5588V38.2544ZM50.6265 38.2544C50.0143 38.2544 49.4071 37.7935 48.9867 37.0682L47.8581 37.7222C48.3873 38.6353 49.3451 39.5588 50.6265 39.5588V38.2544ZM56.3478 36.9066C56.3478 37.651 55.7444 38.2544 55 38.2544V39.5588C56.4648 39.5588 57.6522 38.3714 57.6522 36.9066H56.3478ZM33 31.3478C31.5352 31.3478 30.3478 32.5352 30.3478 34H31.6522C31.6522 33.2556 32.2556 32.6522 33 32.6522V31.3478ZM38.9879 37.0682C38.5676 37.7935 37.9604 38.2544 37.3481 38.2544V39.5588C38.6296 39.5588 39.5874 38.6353 40.1165 37.7222L38.9879 37.0682ZM57.6522 43.2953C57.6522 41.8305 56.4648 40.6431 55 40.6431V41.9475C55.7444 41.9475 56.3478 42.5509 56.3478 43.2953H57.6522ZM55 32.6522C55.7444 32.6522 56.3478 33.2556 56.3478 34H57.6522C57.6522 32.5352 56.4648 31.3478 55 31.3478V32.6522Z" fill="url(#paint4_linear_3415_2320)" mask="url(#path-9-outside-3_3415_2320)"/>
</g>
<ellipse cx="43.9522" cy="40.1675" rx="3.48198" ry="3.48198" fill="#0F0F0F"/>
<g style="mix-blend-mode:screen" opacity="0.4" filter="url(#filter1_df_3415_2320)">
<mask id="path-12-outside-4_3415_2320" maskUnits="userSpaceOnUse" x="30" y="31" width="28" height="18" fill="black">
<rect fill="white" x="30" y="31" width="28" height="18"/>
<path fill-rule="evenodd" clip-rule="evenodd" d="M31 34C31 32.8954 31.8954 32 33 32L55 32C56.1046 32 57 32.8954 57 34V36.9615C57 38.0661 56.1046 38.9615 55 38.9615H49.7952C48.8884 38.9615 48.1316 38.3168 47.6109 37.5744C46.8173 36.4428 45.503 35.7031 44.0159 35.7031C42.5289 35.7031 41.2146 36.4428 40.421 37.5744C39.9003 38.3168 39.1435 38.9615 38.2366 38.9615H33C31.8954 38.9615 31 38.0661 31 36.9615V34ZM40.429 42.6191C39.9081 41.8814 39.1534 41.2417 38.2503 41.2417H33C31.8954 41.2417 31 42.1371 31 43.2417V46.2019C31 47.3065 31.8954 48.2019 33 48.2019H55C56.1046 48.2019 57 47.3065 57 46.2019V43.2417C57 42.1371 56.1046 41.2417 55 41.2417H49.7816C48.8785 41.2417 48.1238 41.8814 47.6029 42.6191C46.8085 43.7442 45.498 44.479 44.0159 44.479C42.5339 44.479 41.2234 43.7442 40.429 42.6191Z"/>
</mask>
<path fill-rule="evenodd" clip-rule="evenodd" d="M31 34C31 32.8954 31.8954 32 33 32L55 32C56.1046 32 57 32.8954 57 34V36.9615C57 38.0661 56.1046 38.9615 55 38.9615H49.7952C48.8884 38.9615 48.1316 38.3168 47.6109 37.5744C46.8173 36.4428 45.503 35.7031 44.0159 35.7031C42.5289 35.7031 41.2146 36.4428 40.421 37.5744C39.9003 38.3168 39.1435 38.9615 38.2366 38.9615H33C31.8954 38.9615 31 38.0661 31 36.9615V34ZM40.429 42.6191C39.9081 41.8814 39.1534 41.2417 38.2503 41.2417H33C31.8954 41.2417 31 42.1371 31 43.2417V46.2019C31 47.3065 31.8954 48.2019 33 48.2019H55C56.1046 48.2019 57 47.3065 57 46.2019V43.2417C57 42.1371 56.1046 41.2417 55 41.2417H49.7816C48.8785 41.2417 48.1238 41.8814 47.6029 42.6191C46.8085 43.7442 45.498 44.479 44.0159 44.479C42.5339 44.479 41.2234 43.7442 40.429 42.6191Z" fill="url(#paint5_linear_3415_2320)"/>
<path d="M47.6029 42.6191L48.1357 42.9953L47.6029 42.6191ZM40.429 42.6191L39.8962 42.9953L40.429 42.6191ZM40.421 37.5744L39.887 37.1999L40.421 37.5744ZM55 31.3478L33 31.3478V32.6522H55V31.3478ZM57.6522 36.9615V34H56.3478V36.9615H57.6522ZM49.7952 39.6137H55V38.3093H49.7952V39.6137ZM44.0159 36.3553C45.2814 36.3553 46.4002 36.9839 47.0769 37.9489L48.1449 37.1999C47.2344 35.9017 45.7246 35.0509 44.0159 35.0509V36.3553ZM40.9549 37.9489C41.6317 36.9839 42.7505 36.3553 44.0159 36.3553V35.0509C42.3073 35.0509 40.7975 35.9017 39.887 37.1999L40.9549 37.9489ZM33 39.6137H38.2366V38.3093H33V39.6137ZM30.3478 34V36.9615H31.6522V34H30.3478ZM38.2503 40.5895H33V41.8939H38.2503V40.5895ZM30.3478 43.2417V46.2019H31.6522V43.2417H30.3478ZM33 48.8541H55V47.5497H33V48.8541ZM57.6522 46.2019V43.2417H56.3478V46.2019H57.6522ZM55 40.5895H49.7816V41.8939H55V40.5895ZM47.0701 42.2429C46.3927 43.2024 45.2772 43.8268 44.0159 43.8268V45.1312C45.7188 45.1312 47.2243 44.2861 48.1357 42.9953L47.0701 42.2429ZM44.0159 43.8268C42.7547 43.8268 41.6392 43.2024 40.9618 42.2429L39.8962 42.9953C40.8076 44.2861 42.313 45.1312 44.0159 45.1312V43.8268ZM49.7816 40.5895C48.5597 40.5895 47.6347 41.4432 47.0701 42.2429L48.1357 42.9953C48.6129 42.3195 49.1973 41.8939 49.7816 41.8939V40.5895ZM55 48.8541C56.4648 48.8541 57.6522 47.6667 57.6522 46.2019H56.3478C56.3478 46.9463 55.7444 47.5497 55 47.5497V48.8541ZM30.3478 46.2019C30.3478 47.6667 31.5352 48.8541 33 48.8541V47.5497C32.2556 47.5497 31.6522 46.9463 31.6522 46.2019H30.3478ZM33 40.5895C31.5352 40.5895 30.3478 41.7769 30.3478 43.2417H31.6522C31.6522 42.4973 32.2556 41.8939 33 41.8939V40.5895ZM38.2503 41.8939C38.8346 41.8939 39.419 42.3195 39.8962 42.9953L40.9618 42.2429C40.3972 41.4432 39.4722 40.5895 38.2503 40.5895V41.8939ZM33 38.3093C32.2556 38.3093 31.6522 37.7059 31.6522 36.9615H30.3478C30.3478 38.4263 31.5352 39.6137 33 39.6137V38.3093ZM49.7952 38.3093C49.2085 38.3093 48.6221 37.8803 48.1449 37.1999L47.0769 37.9489C47.6411 38.7533 48.5683 39.6137 49.7952 39.6137V38.3093ZM56.3478 36.9615C56.3478 37.7059 55.7444 38.3093 55 38.3093V39.6137C56.4648 39.6137 57.6522 38.4263 57.6522 36.9615H56.3478ZM33 31.3478C31.5352 31.3478 30.3478 32.5352 30.3478 34H31.6522C31.6522 33.2556 32.2556 32.6522 33 32.6522V31.3478ZM39.887 37.1999C39.4098 37.8803 38.8234 38.3093 38.2366 38.3093V39.6137C39.4636 39.6137 40.3908 38.7533 40.9549 37.9489L39.887 37.1999ZM57.6522 43.2417C57.6522 41.7769 56.4648 40.5895 55 40.5895V41.8939C55.7444 41.8939 56.3478 42.4973 56.3478 43.2417H57.6522ZM55 32.6522C55.7444 32.6522 56.3478 33.2556 56.3478 34H57.6522C57.6522 32.5352 56.4648 31.3478 55 31.3478V32.6522Z" fill="url(#paint6_linear_3415_2320)" mask="url(#path-12-outside-4_3415_2320)"/>
</g>
<g filter="url(#filter2_f_3415_2320)">
<ellipse cx="43.9515" cy="40.1688" rx="2.72351" ry="2.72351" fill="url(#paint7_linear_3415_2320)"/>
<path d="M43.9515 43.2184C45.6358 43.2184 47.0011 41.8531 47.0011 40.1688C47.0011 38.4846 45.6358 37.1192 43.9515 37.1192C42.2673 37.1192 40.9019 38.4846 40.9019 40.1688C40.9019 41.8531 42.2673 43.2184 43.9515 43.2184Z" stroke="url(#paint8_linear_3415_2320)" stroke-width="0.652216" stroke-linejoin="round"/>
</g>
<g clip-path="url(#clip2_3415_2320)">
<path d="M306.005 43.0474H306C303.817 43.0474 302.047 44.817 302.047 46.9999V47.0046C302.047 49.1875 303.817 50.9571 306 50.9571H306.005C308.187 50.9571 309.957 49.1875 309.957 47.0046V46.9999C309.957 44.817 308.187 43.0474 306.005 43.0474Z" fill="#00FFB6"/>
<path d="M298.246 43.3403C298.246 40.9933 300.149 39.0903 302.496 39.0903H310.703L319.794 30H297.132L289 38.1317V51.5097H298.246V43.3356V43.3403Z" fill="white"/>
<path d="M313.754 42.457V50.3479C313.754 52.6948 311.851 54.5979 309.504 54.5979H301.613L292.207 64.0045H314.868L323 55.8729V42.4618H313.754V42.457Z" fill="white"/>
</g>
<path style="mix-blend-mode:screen" d="M104.991 89.819L213.437 239.082C232.092 264.753 265.15 275.496 295.328 265.69L470.795 208.679C500.974 198.872 521.408 170.746 521.408 139.018L521.408 -45.4807C521.408 -77.214 500.974 -105.335 470.795 -115.141L295.328 -172.152C265.149 -181.958 232.086 -171.215 213.437 -145.544L104.991 3.71868C86.3363 29.3891 86.3363 64.1538 104.991 89.8242L104.991 89.819Z" stroke="url(#paint9_linear_3415_2320)" stroke-miterlimit="10"/>
<path style="mix-blend-mode:screen" d="M109.41 96.1181L221.411 239.47C240.673 264.125 273.621 273.575 303.024 262.874L473.968 200.653C503.371 189.951 522.539 161.538 521.445 130.265L515.094 -51.5377C514 -82.805 492.9 -109.816 462.821 -118.439L287.951 -168.581C257.872 -177.204 225.667 -165.481 208.17 -139.544L106.441 11.2692C88.9435 37.2066 90.1425 71.4635 109.404 96.1181L109.41 96.1181Z" stroke="url(#paint10_linear_3415_2320)" stroke-miterlimit="10"/>
<path style="mix-blend-mode:screen" d="M113.965 102.238L229.259 239.642C249.092 263.276 281.883 271.449 310.485 259.894L476.796 192.699C505.398 181.144 523.309 152.479 521.157 121.704L508.644 -57.2296C506.492 -88.0047 484.769 -113.895 454.832 -121.356L280.788 -164.749C250.856 -172.21 219.521 -159.55 203.17 -133.387L108.117 18.7241C91.771 44.8866 94.127 78.599 113.954 102.233L113.965 102.238Z" stroke="url(#paint11_linear_3415_2320)" stroke-miterlimit="10"/>
<path style="mix-blend-mode:screen" d="M118.645 108.186L236.987 239.617C257.343 262.224 289.935 269.151 317.726 256.779L479.293 184.847C507.084 172.475 523.743 143.616 520.565 113.364L502.078 -62.5274C498.9 -92.779 476.602 -117.544 446.847 -123.868L273.856 -160.638C244.102 -166.963 213.662 -153.408 198.452 -127.067L110.022 26.0964C94.8126 52.4422 98.2944 85.5787 118.651 108.186L118.645 108.186Z" stroke="url(#paint12_linear_3415_2320)" stroke-miterlimit="10"/>
<path style="mix-blend-mode:screen" d="M123.441 113.95L244.579 239.391C265.411 260.967 297.773 266.674 324.726 253.522L481.46 177.076C508.419 163.929 523.843 134.919 519.67 105.217L495.403 -67.4654C491.23 -97.1673 468.403 -120.801 438.868 -126.01L267.134 -156.293C237.594 -161.503 208.065 -147.1 193.986 -120.618L112.117 33.3523C98.0379 59.8342 102.609 92.3685 123.441 113.945L123.441 113.95Z" stroke="url(#paint13_linear_3415_2320)" stroke-miterlimit="10"/>
<path style="mix-blend-mode:screen" d="M128.342 119.536L252.024 238.977C273.296 259.522 305.38 264.03 331.491 250.145L483.304 169.421C509.414 155.537 523.618 126.421 518.482 97.2951L488.623 -72.0311C483.487 -101.157 460.183 -123.66 430.9 -127.775L260.631 -151.702C231.348 -155.817 202.741 -140.608 189.777 -114.026L114.405 40.5145C101.441 67.0959 107.064 98.9967 128.337 119.541L128.342 119.536Z" stroke="url(#paint14_linear_3415_2320)" stroke-miterlimit="10"/>
<path style="mix-blend-mode:screen" d="M133.342 124.935L259.327 238.375C280.998 257.889 312.762 261.224 338.019 246.648L484.837 161.883C510.089 147.301 523.084 118.123 517.021 89.5992L481.774 -76.2296C475.712 -104.753 451.973 -126.125 422.973 -129.172L254.369 -146.895C225.369 -149.942 197.709 -133.974 185.845 -107.335L116.891 47.5412C105.033 74.1802 111.671 105.427 133.342 124.935Z" stroke="url(#paint15_linear_3415_2320)" stroke-miterlimit="10"/>
<path style="mix-blend-mode:screen" d="M138.42 130.143L266.474 237.589C288.5 256.071 319.919 258.265 344.297 243.029L486.057 154.447C510.44 139.212 522.236 110.007 515.283 82.1115L474.842 -80.0838C467.889 -107.979 443.758 -128.226 415.077 -130.231L248.327 -141.891C219.646 -143.896 192.939 -127.205 182.164 -100.55L119.546 54.4359C108.776 81.0906 116.394 111.651 138.42 130.133L138.42 130.143Z" stroke="url(#paint16_linear_3415_2320)" stroke-miterlimit="10"/>
<path style="mix-blend-mode:screen" d="M143.583 135.165L273.464 236.637C295.804 254.087 326.836 255.171 350.339 239.323L486.979 147.154C510.482 131.301 521.099 102.123 513.288 74.871L467.858 -83.5651C460.047 -110.817 435.575 -129.932 407.24 -130.922L242.521 -136.676C214.191 -137.665 188.442 -120.298 178.751 -93.6594L122.378 61.2216C112.682 87.8606 121.242 117.714 143.583 135.165Z" stroke="url(#paint17_linear_3415_2320)" stroke-miterlimit="10"/>
<path style="mix-blend-mode:screen" d="M148.808 139.997L280.286 235.522C302.898 251.951 333.517 251.951 356.129 235.522L487.607 139.997C510.22 123.568 519.681 94.447 511.047 67.8656L460.827 -86.6908C452.188 -113.272 427.418 -131.272 399.465 -131.272L236.95 -131.272C208.997 -131.272 184.227 -113.272 175.588 -86.6908L125.368 67.8656C116.729 94.447 126.195 123.568 148.808 139.997Z" stroke="url(#paint18_linear_3415_2320)" stroke-miterlimit="10"/>
<path style="mix-blend-mode:screen" d="M154.096 144.631L286.94 234.234C309.789 249.648 339.962 248.59 361.679 231.627L487.947 132.977C509.665 116.008 517.984 86.9867 508.56 61.0912L453.753 -89.4809C444.329 -115.376 419.298 -132.261 391.753 -131.298L231.615 -125.706C204.07 -124.743 180.28 -106.156 172.683 -79.664L128.515 74.3636C120.918 100.856 131.242 129.228 154.091 144.636L154.096 144.631Z" stroke="url(#paint19_linear_3415_2320)" stroke-miterlimit="10"/>
<path style="mix-blend-mode:screen" d="M159.525 149.034L293.511 232.757C316.558 247.155 346.25 245.082 367.067 227.616L488.099 126.06C508.916 108.594 516.115 79.7087 505.937 54.5147L446.753 -91.9735C436.575 -117.167 411.329 -132.943 384.219 -131.047L226.61 -120.026C199.5 -118.131 176.698 -98.9945 170.122 -72.6278L131.902 80.6721C125.326 107.039 136.478 134.641 159.525 149.039L159.525 149.034Z" stroke="url(#paint20_linear_3415_2320)" stroke-miterlimit="10"/>
<path style="mix-blend-mode:screen" d="M165.091 153.196L300.003 231.087C323.208 244.485 352.397 241.417 372.308 223.485L488.078 119.248C507.99 101.321 514.094 72.6091 503.194 48.1325L439.832 -94.183C428.937 -118.66 403.512 -133.335 376.868 -130.534L221.94 -114.251C195.296 -111.45 173.479 -91.8112 167.908 -65.6016L135.52 86.7768C129.949 112.987 141.887 139.798 165.091 153.196Z" stroke="url(#paint21_linear_3415_2320)" stroke-miterlimit="10"/>
<path style="mix-blend-mode:screen" d="M170.777 157.128L306.396 229.239C329.721 241.642 358.381 237.616 377.386 219.26L487.879 112.557C506.885 94.2062 511.911 65.7033 500.33 41.9597L432.994 -96.094C421.413 -119.838 395.858 -133.424 369.7 -129.749L217.594 -108.372C191.432 -104.696 170.615 -84.5913 166.028 -58.5753L139.358 92.6931C134.771 118.709 147.457 144.72 170.782 157.123L170.777 157.128Z" stroke="url(#paint22_linear_3415_2320)" stroke-miterlimit="10"/>
<path style="mix-blend-mode:screen" d="M176.573 160.83L312.694 227.223C336.108 238.642 364.208 233.689 382.302 214.951L487.507 106.007C505.602 87.269 509.576 59.0122 497.345 36.012L426.245 -97.7117C414.015 -120.712 388.37 -133.22 362.716 -128.696L213.568 -102.398C187.913 -97.874 168.091 -77.345 164.468 -51.5542L143.389 98.421C139.766 124.217 153.159 149.411 176.573 160.83Z" stroke="url(#paint23_linear_3415_2320)" stroke-miterlimit="10"/>
<path style="mix-blend-mode:screen" d="M182.468 164.296L318.888 225.035C342.349 235.48 369.873 229.632 387.061 210.542L486.984 99.5676C504.167 80.4784 507.11 52.499 494.267 30.258L419.601 -99.0678C406.758 -121.309 381.056 -132.754 355.93 -127.414L209.861 -96.3662C184.74 -91.0258 165.913 -70.1146 163.227 -44.5751L147.619 103.939C144.933 129.484 159.002 153.851 182.468 164.296Z" stroke="url(#paint24_linear_3415_2320)" stroke-miterlimit="10"/>
<path style="mix-blend-mode:screen" d="M188.457 167.537L324.977 222.694C348.459 232.181 375.375 225.469 391.653 206.071L486.298 93.2795C502.575 73.8814 504.513 46.2058 491.094 24.7291L413.067 -100.136C399.648 -121.613 373.925 -132.005 349.354 -125.88L206.489 -90.2615C181.918 -84.1357 164.085 -62.8842 162.316 -37.6222L152.043 109.259C150.279 134.521 164.981 158.05 188.457 167.537Z" stroke="url(#paint25_linear_3415_2320)" stroke-miterlimit="10"/>
<path style="mix-blend-mode:screen" d="M194.52 170.547L330.946 220.202C354.412 228.741 380.706 221.202 396.077 201.526L485.46 87.1222C500.832 67.4467 501.79 40.1061 487.827 19.4096L406.643 -100.948C392.679 -121.649 366.978 -131.005 342.972 -124.121L203.416 -84.1045C179.416 -77.2196 162.573 -55.6644 161.703 -30.7113L156.635 114.379C155.766 139.332 171.06 162.013 194.526 170.552L194.52 170.547Z" stroke="url(#paint26_linear_3415_2320)" stroke-miterlimit="10"/>
<path style="mix-blend-mode:screen" d="M200.652 173.327L336.789 217.563C360.203 225.171 385.858 216.835 400.329 196.919L484.466 81.1117C498.937 61.1953 498.937 34.2212 484.466 14.3048L400.329 -101.503C385.858 -121.419 360.208 -129.754 336.789 -122.147L200.652 -77.9107C177.238 -70.3033 161.384 -48.4811 161.384 -23.8631L161.384 119.285C161.384 143.903 177.238 165.725 200.652 173.332L200.652 173.327Z" stroke="url(#paint27_linear_3415_2320)" stroke-miterlimit="10"/>
<path style="mix-blend-mode:screen" d="M206.835 175.888L342.511 214.794C365.847 221.485 390.836 212.391 404.412 192.265L483.34 75.2534C496.916 55.1276 495.984 28.5514 481.041 9.42032L394.145 -101.801C379.198 -120.932 353.637 -128.262 330.825 -119.958L198.196 -71.6851C175.384 -63.3814 160.515 -41.3341 161.363 -17.072L166.29 123.982C167.138 148.244 183.51 169.197 206.845 175.888L206.835 175.888Z" stroke="url(#paint28_linear_3415_2320)" stroke-miterlimit="10"/>
<path style="mix-blend-mode:screen" d="M213.034 178.144L348.066 211.809C371.292 217.6 395.601 207.778 408.287 187.479L482.031 69.4626C494.717 49.1639 492.885 23.0066 477.502 4.67137L388.046 -101.937C372.658 -120.272 347.218 -126.618 325.024 -117.649L195.992 -65.5177C173.798 -56.5491 159.902 -34.3133 161.573 -10.4387L171.279 128.39C172.95 152.27 189.803 172.354 213.029 178.144L213.034 178.144Z" stroke="url(#paint29_linear_3415_2320)" stroke-miterlimit="10"/>
<path style="mix-blend-mode:screen" d="M219.233 180.097L353.454 208.626C376.538 213.532 400.156 203.019 411.957 182.579L480.565 63.7451C492.366 43.3051 489.665 17.5929 473.869 0.0534351L382.051 -101.921C366.26 -119.461 340.972 -124.838 319.412 -115.236L194.06 -59.4236C172.499 -49.8266 159.573 -27.4337 162.039 -3.96232L176.384 132.505C178.85 155.976 196.149 175.191 219.238 180.097L219.233 180.097Z" stroke="url(#paint30_linear_3415_2320)" stroke-miterlimit="10"/>
<path style="mix-blend-mode:screen" d="M225.427 181.757L358.669 205.249C381.585 209.291 404.496 198.113 415.423 177.568L478.942 58.1063C489.869 37.5616 486.319 12.3153 470.157 -4.42309L376.171 -101.749C360.009 -118.487 334.904 -122.916 313.988 -112.712L192.384 -53.4026C171.468 -43.2035 159.499 -20.6955 162.74 2.35185L181.568 136.332C184.808 159.374 202.515 177.715 225.432 181.757L225.427 181.757Z" stroke="url(#paint31_linear_3415_2320)" stroke-miterlimit="10"/>
<path style="mix-blend-mode:screen" d="M231.605 183.128L363.711 201.694C386.433 204.888 408.627 193.087 418.685 172.463L477.167 52.5617C487.225 31.9385 482.858 7.18434 466.355 -8.75298L370.396 -101.424C353.894 -117.361 329.003 -120.859 308.741 -110.089L190.955 -47.4601C170.698 -36.6904 159.677 -14.0986 163.662 8.49848L186.824 139.871C190.808 162.469 208.887 179.929 231.61 183.123L231.605 183.128Z" stroke="url(#paint32_linear_3415_2320)" stroke-miterlimit="10"/>
<path style="mix-blend-mode:screen" d="M237.757 184.219L368.569 197.967C391.067 200.334 412.533 187.941 421.732 167.271L475.23 47.1073C484.434 26.4422 479.277 2.19587 462.465 -12.9404L364.716 -100.952C347.904 -116.088 323.255 -118.68 303.663 -107.371L189.751 -41.6056C170.159 -30.2966 160.08 -7.65238 164.782 14.4735L192.128 143.134C196.829 165.265 215.248 181.847 237.746 184.213L237.757 184.219Z" stroke="url(#paint33_linear_3415_2320)" stroke-miterlimit="10"/>
<path style="mix-blend-mode:screen" d="M243.877 185.03L373.255 194.077C395.507 195.632 416.23 182.684 424.586 162.003L473.167 41.7562C481.523 21.0754 475.612 -2.63688 458.523 -16.9773L359.171 -100.345C342.082 -114.685 317.705 -116.387 298.789 -104.565L188.803 -35.8361C169.887 -24.014 160.73 -1.35938 166.128 20.2848L197.505 146.124C202.903 167.768 221.62 183.475 243.872 185.03L243.877 185.03Z" stroke="url(#paint34_linear_3415_2320)" stroke-miterlimit="10"/>
<path style="mix-blend-mode:screen" d="M249.961 185.569L377.758 190.03C399.737 190.799 419.711 177.323 427.235 156.658L470.974 36.4942C478.497 15.8291 471.853 -7.33342 454.523 -20.8781L353.753 -99.6065C336.423 -113.146 312.344 -113.989 294.108 -101.69L188.091 -30.1818C169.856 -17.8832 161.615 4.76096 167.678 25.9025L202.924 148.825C208.987 169.967 227.971 184.799 249.956 185.569L249.961 185.569Z" stroke="url(#paint35_linear_3415_2320)" stroke-miterlimit="10"/>
<path style="mix-blend-mode:screen" d="M255.992 185.846L382.077 185.846C403.763 185.846 422.983 171.882 429.685 151.259L468.648 31.3416C475.35 10.7184 468.01 -11.8786 450.465 -24.6222L348.459 -98.7329C330.914 -111.482 307.155 -111.482 289.61 -98.7329L187.604 -24.6222C170.059 -11.8734 162.719 10.7184 169.42 31.3416L208.384 151.259C215.086 171.882 234.306 185.846 255.992 185.846Z" stroke="url(#paint36_linear_3415_2320)" stroke-miterlimit="10"/>
<path style="mix-blend-mode:screen" d="M261.977 185.867L386.224 181.527C407.596 180.778 426.052 166.359 431.947 145.804L466.215 26.3C472.11 5.74483 464.099 -16.2658 446.371 -28.224L343.302 -97.743C325.574 -109.701 302.166 -108.884 285.318 -95.7168L187.348 -19.1768C170.5 -6.01442 164.044 16.5041 171.353 36.5986L213.872 153.422C221.186 173.516 240.605 186.616 261.977 185.867Z" stroke="url(#paint37_linear_3415_2320)" stroke-miterlimit="10"/>
<path style="mix-blend-mode:screen" d="M267.819 185.673L390.103 177.124C411.135 175.652 428.826 160.809 433.931 140.348L463.586 21.4101C468.685 0.954393 460.036 -20.4594 442.156 -31.6323L338.202 -96.591C320.322 -107.764 297.28 -106.151 281.134 -92.6014L187.232 -13.8101C171.08 -0.260276 165.494 22.1536 173.394 41.6982L219.316 155.354C227.212 174.904 246.803 187.139 267.835 185.668L267.819 185.673Z" stroke="url(#paint38_linear_3415_2320)" stroke-miterlimit="10"/>
<path style="mix-blend-mode:screen" d="M273.526 185.265L393.732 172.631C414.407 170.458 431.329 155.217 435.654 134.887L460.785 16.6612C465.109 -3.67406 455.842 -24.4753 437.842 -34.8733L333.171 -95.3084C315.166 -105.701 292.521 -103.324 277.071 -89.413L187.248 -8.53797C171.798 5.37315 167.065 27.6456 175.52 46.6406L224.683 157.055C233.139 176.045 252.861 187.432 273.537 185.26L273.526 185.265Z" stroke="url(#paint39_linear_3415_2320)" stroke-miterlimit="10"/>
<path style="mix-blend-mode:screen" d="M279.092 184.657L397.104 168.07C417.402 165.217 433.554 149.62 437.114 129.436L457.811 12.074C461.371 -8.10944 451.528 -28.2929 433.429 -37.916L328.202 -93.8641C310.103 -103.487 287.867 -100.362 273.123 -86.1259L187.395 -3.33975C172.651 10.9012 168.751 33.0114 177.735 51.4356L229.976 158.547C238.961 176.971 258.788 187.51 279.087 184.657L279.092 184.657Z" stroke="url(#paint40_linear_3415_2320)" stroke-miterlimit="10"/>
<path style="mix-blend-mode:screen" d="M284.506 183.846L400.224 163.442C420.125 159.934 435.507 144.007 438.319 123.992L454.67 7.62925C457.481 -12.3866 447.089 -31.9313 428.926 -40.79L323.312 -92.2984C305.15 -101.157 283.344 -97.3141 269.307 -82.7747L187.683 1.74963C173.646 16.289 170.562 38.2107 180.049 56.059L235.212 159.809C244.699 177.652 264.6 187.359 284.501 183.851L284.506 183.846Z" stroke="url(#paint41_linear_3415_2320)" stroke-miterlimit="10"/>
<path style="mix-blend-mode:screen" d="M289.767 182.846L403.093 158.757C422.585 154.615 437.193 138.39 439.277 118.573L451.387 3.3469C453.47 -16.47 442.554 -35.376 424.35 -43.4808L318.506 -90.6069C300.301 -98.7117 278.95 -94.1723 265.615 -79.3659L188.091 6.73437C174.756 21.5408 172.473 43.253 182.436 60.5097L240.364 160.846C250.327 178.102 270.27 186.982 289.762 182.841L289.767 182.846Z" stroke="url(#paint42_linear_3415_2320)" stroke-miterlimit="10"/>
<path style="mix-blend-mode:screen" d="M294.877 181.663L405.721 154.024C424.784 149.27 438.622 132.783 439.994 113.181L447.962 -0.778151C449.334 -20.3804 437.926 -38.6319 419.711 -45.9932L313.794 -88.7894C295.574 -96.1507 274.689 -90.9413 262.06 -75.8888L188.63 11.6199C176.002 26.6724 174.499 48.1438 184.913 64.8036L245.447 161.684C255.861 178.349 275.814 186.412 294.882 181.658L294.877 181.663Z" stroke="url(#paint43_linear_3415_2320)" stroke-miterlimit="10"/>
<path style="mix-blend-mode:screen" d="M299.83 180.296L408.104 149.248C426.727 143.908 439.795 127.185 440.47 107.824L444.402 -4.74773C445.078 -24.1092 433.209 -41.7062 415.004 -48.3293L309.16 -86.8532C290.956 -93.4815 270.553 -87.6281 258.626 -72.3609L189.28 16.3991C177.353 31.6662 176.609 52.8759 187.447 68.9389L250.432 162.322C261.265 178.385 281.207 185.642 299.83 180.301L299.83 180.296Z" stroke="url(#paint44_linear_3415_2320)" stroke-miterlimit="10"/>
<path style="mix-blend-mode:screen" d="M304.621 178.762L410.245 144.442C428.413 138.542 440.711 121.609 440.711 102.51L440.711 -8.55401C440.711 -27.6537 428.413 -44.5858 410.245 -50.4864L304.621 -84.806C286.453 -90.7066 266.552 -84.2406 255.322 -68.7902L190.044 21.0588C178.819 36.5145 178.819 57.4361 190.044 72.8918L255.322 162.741C266.547 178.196 286.453 184.662 304.621 178.757L304.621 178.762Z" stroke="url(#paint45_linear_3415_2320)" stroke-miterlimit="10"/>
<path style="mix-blend-mode:screen" d="M309.254 177.06L412.156 139.604C429.852 133.164 441.392 116.059 440.737 97.2317L436.915 -12.2091C436.255 -31.0313 423.554 -47.2932 405.449 -52.4818L300.186 -82.6653C282.081 -87.8591 262.694 -80.8014 252.16 -65.1834L190.923 25.6028C180.389 41.2155 181.112 61.8387 192.709 76.6818L260.128 162.976C271.725 177.819 291.558 183.505 309.254 177.065L309.254 177.06Z" stroke="url(#paint46_linear_3415_2320)" stroke-miterlimit="10"/>
<path style="mix-blend-mode:screen" d="M313.747 175.275L413.858 134.829C431.078 127.871 441.858 110.62 440.56 92.0961L433.026 -15.6117C431.732 -34.1355 418.654 -49.722 400.633 -54.2142L295.867 -80.3348C277.846 -84.827 258.987 -77.2039 249.144 -61.4551L191.929 30.1112C182.086 45.8601 183.505 66.1535 195.442 80.3787L264.846 163.092C276.783 177.317 296.522 182.238 313.742 175.28L313.747 175.275Z" stroke="url(#paint47_linear_3415_2320)" stroke-miterlimit="10"/>
<path style="mix-blend-mode:screen" d="M318.103 173.395L415.36 130.091C432.088 122.646 442.12 105.274 440.204 87.0593L429.078 -18.8212C427.162 -37.0308 413.743 -51.9367 395.831 -55.7483L291.694 -77.8846C273.783 -81.6909 255.458 -73.5337 246.301 -57.675L193.07 34.5248C183.913 50.3836 186.013 70.3315 198.264 83.9389L269.5 163.055C281.752 176.662 301.375 180.835 318.103 173.385L318.103 173.395Z" stroke="url(#paint48_linear_3415_2320)" stroke-miterlimit="10"/>
<path style="mix-blend-mode:screen" d="M322.317 171.438L416.664 125.422C432.889 117.506 442.177 100.045 439.664 82.1649L425.056 -21.7837C422.543 -39.6634 408.805 -53.8887 391.025 -57.0248L287.647 -75.2554C269.866 -78.3915 252.091 -69.7213 243.615 -53.7787L194.332 38.908C185.855 54.8505 188.609 74.4371 201.149 87.4215L274.065 162.93C286.605 175.92 306.087 179.354 322.312 171.438L322.317 171.438Z" stroke="url(#paint49_linear_3415_2320)" stroke-miterlimit="10"/>
<path style="mix-blend-mode:screen" d="M326.391 169.401L417.779 120.809C433.496 112.453 442.046 94.9239 438.957 77.3949L420.983 -24.5327C417.894 -42.0617 403.863 -55.6116 386.234 -58.088L283.741 -72.4913C266.113 -74.9678 248.893 -65.8158 241.091 -49.8157L195.719 43.2114C187.918 59.2115 191.3 78.4159 204.107 90.7825L278.558 162.678C291.364 175.045 310.673 177.757 326.391 169.401Z" stroke="url(#paint50_linear_3415_2320)" stroke-miterlimit="10"/>
<path style="mix-blend-mode:screen" d="M330.317 167.296L418.695 116.269C433.894 107.494 441.716 89.9286 438.067 72.7557L416.847 -27.0673C413.198 -44.235 398.91 -57.1042 381.454 -58.9367L279.961 -69.6017C262.505 -71.4342 245.851 -61.8215 238.714 -45.7847L197.206 47.4465C190.065 63.4833 194.065 82.2898 207.107 94.0334L282.945 162.322C295.987 174.066 315.113 176.076 330.312 167.301L330.317 167.296Z" stroke="url(#paint51_linear_3415_2320)" stroke-miterlimit="10"/>
<path style="mix-blend-mode:screen" d="M334.103 165.123L419.439 111.798C434.115 102.626 441.219 85.0494 437.031 68.2535L412.69 -29.381C408.502 -46.1717 393.978 -58.3603 376.716 -59.5697L276.338 -66.5907C259.076 -67.8002 242.998 -57.7529 236.511 -41.7057L198.814 51.5936C192.332 67.6409 196.919 86.0337 210.175 97.1595L287.26 161.841C300.516 172.966 319.433 174.286 334.108 165.118L334.103 165.123Z" stroke="url(#paint52_linear_3415_2320)" stroke-miterlimit="10"/>
<path style="mix-blend-mode:screen" d="M337.736 162.887L419.988 107.405C434.135 97.8606 440.528 80.295 435.826 63.8917L408.481 -31.4809C403.779 -47.8842 389.046 -59.3922 371.993 -59.9891L272.84 -63.4498C255.788 -64.0467 240.29 -53.5911 234.453 -37.5543L200.52 55.677C194.683 71.7138 199.835 89.6825 213.285 100.19L291.469 161.275C304.914 171.783 323.6 172.432 337.747 162.893L337.736 162.887Z" stroke="url(#paint53_linear_3415_2320)" stroke-miterlimit="10"/>
<path style="mix-blend-mode:screen" d="M341.224 160.599L420.366 103.096C433.978 93.2062 439.675 75.6772 434.476 59.6771L404.245 -33.3605C399.046 -49.3606 384.135 -60.1984 367.308 -60.1984L269.48 -60.1984C252.652 -60.1984 237.741 -49.3658 232.542 -33.3605L202.311 59.6771C197.112 75.6772 202.809 93.2114 216.421 103.096L295.564 160.599C309.176 170.49 327.606 170.49 341.218 160.599L341.224 160.599Z" stroke="url(#paint54_linear_3415_2320)" stroke-miterlimit="10"/>
<path style="mix-blend-mode:screen" d="M344.559 158.254L420.57 98.8716C433.643 88.6568 438.654 71.1855 432.978 55.5989L399.988 -35.0407C394.313 -50.6324 379.245 -60.7948 362.669 -60.2137L266.27 -56.8471C249.689 -56.266 235.369 -45.0774 230.798 -29.1296L204.212 63.5885C199.641 79.5363 205.856 96.615 219.61 105.893L299.574 159.83C313.328 169.108 331.49 168.474 344.564 158.26L344.559 158.254Z" stroke="url(#paint55_linear_3415_2320)" stroke-miterlimit="10"/>
<path style="mix-blend-mode:screen" d="M347.805 155.84L420.659 94.7089C433.188 84.1957 437.523 66.8081 431.397 51.6404L395.769 -36.5384C389.643 -51.7061 374.444 -61.2035 358.124 -60.0621L263.249 -53.4286C246.929 -52.2872 233.202 -40.7688 229.249 -24.8995L206.238 67.3841C202.28 83.2533 208.992 99.8713 222.866 108.542L303.522 158.94C317.396 167.61 335.271 166.359 347.8 155.846L347.805 155.84Z" stroke="url(#paint56_linear_3415_2320)" stroke-miterlimit="10"/>
<path style="mix-blend-mode:screen" d="M350.962 153.359L420.649 90.61C432.633 79.8193 436.309 62.5364 429.748 47.8033L391.607 -37.8624C385.046 -52.5955 369.742 -61.4333 353.706 -59.7474L260.443 -49.9462C244.401 -48.2604 231.27 -36.4383 227.919 -20.6633L208.422 71.0601C205.071 86.8351 212.254 102.977 226.223 111.04L307.433 157.925C321.402 165.988 338.973 164.145 350.957 153.349L350.962 153.359Z" stroke="url(#paint57_linear_3415_2320)" stroke-miterlimit="10"/>
<path style="mix-blend-mode:screen" d="M354.019 150.815L420.533 86.5836C431.973 75.5364 434.999 58.3792 428.025 44.0858L387.491 -39.0197C380.517 -53.313 365.135 -61.4911 349.391 -59.2764L257.83 -46.4072C242.081 -44.1925 229.552 -32.0929 226.788 -16.4331L210.73 74.6254C207.971 90.2852 215.604 105.945 229.646 113.411L311.286 156.82C325.328 164.286 342.579 161.862 354.019 150.815Z" stroke="url(#paint58_linear_3415_2320)" stroke-miterlimit="10"/>
<path style="mix-blend-mode:screen" d="M356.978 148.217L420.308 82.6356C431.198 71.358 433.591 54.3474 426.23 40.4991L383.428 -39.999C376.067 -53.8421 360.627 -61.3762 345.187 -58.6536L255.406 -42.821C239.966 -40.0985 228.034 -27.7424 225.851 -12.2134L213.165 78.0649C210.981 93.5939 219.044 108.762 233.139 115.631L315.082 155.594C329.176 162.469 346.093 159.485 356.983 148.207L356.978 148.217Z" stroke="url(#paint59_linear_3415_2320)" stroke-miterlimit="10"/>
<path style="mix-blend-mode:screen" d="M359.841 145.568L419.988 78.7666C430.334 67.2795 432.104 50.4312 424.376 37.0437L379.428 -40.8052C371.7 -54.1928 356.223 -61.0829 341.103 -57.8682L253.175 -39.177C238.055 -35.9623 226.72 -23.3757 225.102 -7.99863L215.704 81.4001C214.086 96.7772 222.557 111.442 236.678 117.73L318.799 154.291C332.925 160.579 349.49 157.055 359.836 145.568L359.841 145.568Z" stroke="url(#paint60_linear_3415_2320)" stroke-miterlimit="10"/>
<path style="mix-blend-mode:screen" d="M362.606 142.872L419.58 74.9762C429.381 63.3007 430.544 46.6409 422.465 33.7088L375.496 -41.4542C367.417 -54.381 351.936 -60.6376 337.145 -56.9517L251.144 -35.5117C236.353 -31.8258 225.62 -19.0299 224.552 -3.82556L218.369 84.5889C217.306 99.7984 226.154 113.961 240.291 119.668L322.469 152.872C336.606 158.584 352.81 154.542 362.606 142.867L362.606 142.872Z" stroke="url(#paint61_linear_3415_2320)" stroke-miterlimit="10"/>
<path style="mix-blend-mode:screen" d="M365.266 140.133L419.067 71.2686C428.319 59.4256 428.895 42.97 420.491 30.5091L371.622 -41.9418C363.219 -54.4027 347.742 -60.0362 333.297 -55.8896L249.291 -31.8004C234.84 -27.659 224.704 -14.6798 224.181 0.341297L221.128 87.6772C220.605 102.698 229.809 116.348 243.935 121.489L326.056 151.379C340.182 156.521 356.009 151.981 365.26 140.138L365.266 140.133Z" stroke="url(#paint62_linear_3415_2320)" stroke-miterlimit="10"/>
<path style="mix-blend-mode:screen" d="M367.826 137.364L418.476 67.6511C427.188 55.6614 427.188 39.4257 418.476 27.436L367.826 -42.2766C359.114 -54.2663 343.674 -59.282 329.58 -54.7061L247.631 -28.0776C233.537 -23.4964 223.992 -10.3653 223.992 4.45678L223.992 90.6251C223.992 105.447 233.537 118.578 247.631 123.159L329.58 149.788C343.674 154.369 359.114 149.348 367.826 137.359L367.826 137.364Z" stroke="url(#paint63_linear_3415_2320)" stroke-miterlimit="10"/>
</g>
<rect x="1" y="1" width="351" height="210" rx="9" stroke="#475569" stroke-width="2"/>
</g>
<rect x="1" y="1" width="351" height="210" rx="9" stroke="#475569" stroke-width="2"/>
<defs>
<filter id="filter0_d_3415_2320" x="29.0432" y="31.3477" width="29.9136" height="20.1152" filterUnits="userSpaceOnUse" color-interpolation-filters="sRGB">
<feFlood flood-opacity="0" result="BackgroundImageFix"/>
<feColorMatrix in="SourceAlpha" type="matrix" values="0 0 0 0 0 0 0 0 0 0 0 0 0 0 0 0 0 0 127 0" result="hardAlpha"/>
<feOffset dy="1.30443"/>
<feGaussianBlur stdDeviation="0.652216"/>
<feComposite in2="hardAlpha" operator="out"/>
<feColorMatrix type="matrix" values="0 0 0 0 0 0 0 0 0 0 0 0 0 0 0 0 0 0 0.8 0"/>
<feBlend mode="normal" in2="BackgroundImageFix" result="effect1_dropShadow_3415_2320"/>
<feBlend mode="normal" in="SourceGraphic" in2="effect1_dropShadow_3415_2320" result="shape"/>
</filter>
<filter id="filter1_df_3415_2320" x="19.9122" y="20.9122" width="48.1756" height="38.3773" filterUnits="userSpaceOnUse" color-interpolation-filters="sRGB">
<feFlood flood-opacity="0" result="BackgroundImageFix"/>
<feColorMatrix in="SourceAlpha" type="matrix" values="0 0 0 0 0 0 0 0 0 0 0 0 0 0 0 0 0 0 127 0" result="hardAlpha"/>
<feOffset dy="2.60887"/>
<feGaussianBlur stdDeviation="1.30443"/>
<feComposite in2="hardAlpha" operator="out"/>
<feColorMatrix type="matrix" values="0 0 0 0 0 0 0 0 0 0 0 0 0 0 0 0 0 0 0.25 0"/>
<feBlend mode="normal" in2="BackgroundImageFix" result="effect1_dropShadow_3415_2320"/>
<feBlend mode="normal" in="SourceGraphic" in2="effect1_dropShadow_3415_2320" result="shape"/>
<feGaussianBlur stdDeviation="5.21773" result="effect2_foregroundBlur_3415_2320"/>
</filter>
<filter id="filter2_f_3415_2320" x="39.2713" y="35.4885" width="9.36033" height="9.36033" filterUnits="userSpaceOnUse" color-interpolation-filters="sRGB">
<feFlood flood-opacity="0" result="BackgroundImageFix"/>
<feBlend mode="normal" in="SourceGraphic" in2="BackgroundImageFix" result="shape"/>
<feGaussianBlur stdDeviation="0.652216" result="effect1_foregroundBlur_3415_2320"/>
</filter>
<linearGradient id="paint0_linear_3415_2320" x1="57" y1="168.476" x2="57" y2="182.167" gradientUnits="userSpaceOnUse">
<stop stop-color="#98F6F0"/>
<stop offset="0.104167" stop-color="#1D948C"/>
<stop offset="0.25" stop-color="#89E3DD"/>
<stop offset="0.697917" stop-color="#C8FEFA"/>
<stop offset="0.854167" stop-color="#1A4D49"/>
<stop offset="1" stop-color="#D1FCF9"/>
</linearGradient>
<linearGradient id="paint1_linear_3415_2320" x1="57" y1="166.286" x2="57" y2="184.357" gradientUnits="userSpaceOnUse">
<stop stop-color="#98F6F0"/>
<stop offset="0.104167" stop-color="#1D948C"/>
<stop offset="0.25" stop-color="#89E3DD"/>
<stop offset="0.697917" stop-color="#C8FEFA"/>
<stop offset="0.854167" stop-color="#1A4D49"/>
<stop offset="1" stop-color="#D1FCF9"/>
</linearGradient>
<linearGradient id="paint2_linear_3415_2320" x1="35.087" y1="138.381" x2="45.3568" y2="154.56" gradientUnits="userSpaceOnUse">
<stop stop-color="#98F6F0"/>
<stop offset="0.104167" stop-color="#1D948C"/>
<stop offset="0.25" stop-color="#89E3DD"/>
<stop offset="0.697917" stop-color="#C8FEFA"/>
<stop offset="0.854167" stop-color="#1A4D49"/>
<stop offset="1" stop-color="#D1FCF9"/>
</linearGradient>
<linearGradient id="paint3_linear_3415_2320" x1="52.7176" y1="48.2019" x2="52.7176" y2="32" gradientUnits="userSpaceOnUse">
<stop offset="0.0104167" stop-color="#FFF0DA"/>
<stop offset="0.0416667" stop-color="#94641E"/>
<stop offset="0.828125" stop-color="#FFF2DB"/>
<stop offset="0.9375" stop-color="#EAC885"/>
<stop offset="0.979167" stop-color="#FBF5D1"/>
<stop offset="0.9999" stop-color="#BD9A4B"/>
<stop offset="1" stop-color="#ECD8A3"/>
</linearGradient>
<linearGradient id="paint4_linear_3415_2320" x1="44" y1="32" x2="44" y2="48.2019" gradientUnits="userSpaceOnUse">
<stop stop-color="#FCF6D1"/>
<stop offset="0.104167" stop-color="#BD9457"/>
<stop offset="0.25" stop-color="#E3CA89"/>
<stop offset="0.697917" stop-color="#FEE8C8"/>
<stop offset="0.854167" stop-color="#4D3A1A"/>
<stop offset="1" stop-color="#FCF0D1"/>
</linearGradient>
<linearGradient id="paint5_linear_3415_2320" x1="52.7176" y1="48.2019" x2="52.7176" y2="32" gradientUnits="userSpaceOnUse">
<stop offset="0.0104167" stop-color="#FFF0DA"/>
<stop offset="0.0416667" stop-color="#94641E"/>
<stop offset="0.828125" stop-color="#FFF2DB"/>
<stop offset="0.9375" stop-color="#EAC885"/>
<stop offset="0.979167" stop-color="#FBF5D1"/>
<stop offset="0.9999" stop-color="#BD9A4B"/>
<stop offset="1" stop-color="#ECD8A3"/>
</linearGradient>
<linearGradient id="paint6_linear_3415_2320" x1="44" y1="32" x2="44" y2="48.2019" gradientUnits="userSpaceOnUse">
<stop stop-color="#FCF6D1"/>
<stop offset="0.104167" stop-color="#BD9457"/>
<stop offset="0.25" stop-color="#E3CA89"/>
<stop offset="0.697917" stop-color="#FEE8C8"/>
<stop offset="0.854167" stop-color="#4D3A1A"/>
<stop offset="1" stop-color="#FCF0D1"/>
</linearGradient>
<linearGradient id="paint7_linear_3415_2320" x1="45.7779" y1="42.8923" x2="45.7779" y2="37.4453" gradientUnits="userSpaceOnUse">
<stop offset="0.0104167" stop-color="#FFF0DA"/>
<stop offset="0.0416667" stop-color="#94641E"/>
<stop offset="0.828125" stop-color="#FFF2DB"/>
<stop offset="0.9375" stop-color="#EAC885"/>
<stop offset="0.979167" stop-color="#FBF5D1"/>
<stop offset="0.9999" stop-color="#BD9A4B"/>
<stop offset="1" stop-color="#ECD8A3"/>
</linearGradient>
<linearGradient id="paint8_linear_3415_2320" x1="43.9515" y1="37.4453" x2="43.9515" y2="42.8923" gradientUnits="userSpaceOnUse">
<stop stop-color="#FCF6D1"/>
<stop offset="0.104167" stop-color="#BD9457"/>
<stop offset="0.25" stop-color="#E3CA89"/>
<stop offset="0.697917" stop-color="#FEE8C8"/>
<stop offset="0.854167" stop-color="#4D3A1A"/>
<stop offset="1" stop-color="#FCF0D1"/>
</linearGradient>
<linearGradient id="paint9_linear_3415_2320" x1="310.893" y1="269.15" x2="303.108" y2="-176.817" gradientUnits="userSpaceOnUse">
<stop/>
<stop offset="0.09" stop-color="#294775"/>
<stop offset="0.37" stop-color="#736A45"/>
<stop offset="0.56" stop-color="#ACE1BF"/>
<stop offset="0.72" stop-color="#50B9B0"/>
<stop offset="0.8" stop-color="#1DA3A8"/>
<stop offset="0.92" stop-color="#546D4C"/>
<stop offset="0.96" stop-color="#645E33"/>
</linearGradient>
<linearGradient id="paint10_linear_3415_2320" x1="318.832" y1="265.281" x2="295.721" y2="-175.684" gradientUnits="userSpaceOnUse">
<stop/>
<stop offset="0.09" stop-color="#294775"/>
<stop offset="0.37" stop-color="#736A45"/>
<stop offset="0.56" stop-color="#ACE1BF"/>
<stop offset="0.72" stop-color="#50B9B0"/>
<stop offset="0.8" stop-color="#1DA3A8"/>
<stop offset="0.92" stop-color="#546D4C"/>
<stop offset="0.96" stop-color="#645E33"/>
</linearGradient>
<linearGradient id="paint11_linear_3415_2320" x1="326.025" y1="262.594" x2="288.316" y2="-168.409" gradientUnits="userSpaceOnUse">
<stop/>
<stop offset="0.09" stop-color="#294775"/>
<stop offset="0.37" stop-color="#736A45"/>
<stop offset="0.56" stop-color="#ACE1BF"/>
<stop offset="0.72" stop-color="#50B9B0"/>
<stop offset="0.8" stop-color="#1DA3A8"/>
<stop offset="0.92" stop-color="#546D4C"/>
<stop offset="0.96" stop-color="#645E33"/>
</linearGradient>
<linearGradient id="paint12_linear_3415_2320" x1="332.511" y1="258.163" x2="280.327" y2="-166.834" gradientUnits="userSpaceOnUse">
<stop/>
<stop offset="0.09" stop-color="#294775"/>
<stop offset="0.37" stop-color="#736A45"/>
<stop offset="0.56" stop-color="#ACE1BF"/>
<stop offset="0.72" stop-color="#50B9B0"/>
<stop offset="0.8" stop-color="#1DA3A8"/>
<stop offset="0.92" stop-color="#546D4C"/>
<stop offset="0.96" stop-color="#645E33"/>
</linearGradient>
<linearGradient id="paint13_linear_3415_2320" x1="337.446" y1="253.235" x2="271.164" y2="-165.278" gradientUnits="userSpaceOnUse">
<stop/>
<stop offset="0.09" stop-color="#294775"/>
<stop offset="0.37" stop-color="#736A45"/>
<stop offset="0.56" stop-color="#ACE1BF"/>
<stop offset="0.72" stop-color="#50B9B0"/>
<stop offset="0.8" stop-color="#1DA3A8"/>
<stop offset="0.92" stop-color="#546D4C"/>
<stop offset="0.96" stop-color="#645E33"/>
</linearGradient>
<linearGradient id="paint14_linear_3415_2320" x1="347.64" y1="251.494" x2="268.489" y2="-155.697" gradientUnits="userSpaceOnUse">
<stop/>
<stop offset="0.09" stop-color="#294775"/>
<stop offset="0.37" stop-color="#736A45"/>
<stop offset="0.56" stop-color="#ACE1BF"/>
<stop offset="0.72" stop-color="#50B9B0"/>
<stop offset="0.8" stop-color="#1DA3A8"/>
<stop offset="0.92" stop-color="#546D4C"/>
<stop offset="0.96" stop-color="#645E33"/>
</linearGradient>
<linearGradient id="paint15_linear_3415_2320" x1="351.692" y1="246.33" x2="259.382" y2="-153.505" gradientUnits="userSpaceOnUse">
<stop/>
<stop offset="0.09" stop-color="#294775"/>
<stop offset="0.37" stop-color="#736A45"/>
<stop offset="0.56" stop-color="#ACE1BF"/>
<stop offset="0.72" stop-color="#50B9B0"/>
<stop offset="0.8" stop-color="#1DA3A8"/>
<stop offset="0.92" stop-color="#546D4C"/>
<stop offset="0.96" stop-color="#645E33"/>
</linearGradient>
<linearGradient id="paint16_linear_3415_2320" x1="354.443" y1="240.889" x2="249.391" y2="-151.168" gradientUnits="userSpaceOnUse">
<stop/>
<stop offset="0.09" stop-color="#294775"/>
<stop offset="0.37" stop-color="#736A45"/>
<stop offset="0.56" stop-color="#ACE1BF"/>
<stop offset="0.72" stop-color="#50B9B0"/>
<stop offset="0.8" stop-color="#1DA3A8"/>
<stop offset="0.92" stop-color="#546D4C"/>
<stop offset="0.96" stop-color="#645E33"/>
</linearGradient>
<linearGradient id="paint17_linear_3415_2320" x1="368.858" y1="240.061" x2="252.795" y2="-139.56" gradientUnits="userSpaceOnUse">
<stop/>
<stop offset="0.09" stop-color="#294775"/>
<stop offset="0.37" stop-color="#736A45"/>
<stop offset="0.56" stop-color="#ACE1BF"/>
<stop offset="0.72" stop-color="#50B9B0"/>
<stop offset="0.8" stop-color="#1DA3A8"/>
<stop offset="0.92" stop-color="#546D4C"/>
<stop offset="0.96" stop-color="#645E33"/>
</linearGradient>
<linearGradient id="paint18_linear_3415_2320" x1="371.36" y1="234.601" x2="243.57" y2="-136.525" gradientUnits="userSpaceOnUse">
<stop/>
<stop offset="0.09" stop-color="#294775"/>
<stop offset="0.37" stop-color="#736A45"/>
<stop offset="0.56" stop-color="#ACE1BF"/>
<stop offset="0.72" stop-color="#50B9B0"/>
<stop offset="0.8" stop-color="#1DA3A8"/>
<stop offset="0.92" stop-color="#546D4C"/>
<stop offset="0.96" stop-color="#645E33"/>
</linearGradient>
<linearGradient id="paint19_linear_3415_2320" x1="372.821" y1="229.032" x2="233.757" y2="-133.24" gradientUnits="userSpaceOnUse">
<stop/>
<stop offset="0.09" stop-color="#294775"/>
<stop offset="0.37" stop-color="#736A45"/>
<stop offset="0.56" stop-color="#ACE1BF"/>
<stop offset="0.72" stop-color="#50B9B0"/>
<stop offset="0.8" stop-color="#1DA3A8"/>
<stop offset="0.92" stop-color="#546D4C"/>
<stop offset="0.96" stop-color="#645E33"/>
</linearGradient>
<linearGradient id="paint20_linear_3415_2320" x1="373.429" y1="223.373" x2="223.553" y2="-129.722" gradientUnits="userSpaceOnUse">
<stop/>
<stop offset="0.09" stop-color="#294775"/>
<stop offset="0.37" stop-color="#736A45"/>
<stop offset="0.56" stop-color="#ACE1BF"/>
<stop offset="0.72" stop-color="#50B9B0"/>
<stop offset="0.8" stop-color="#1DA3A8"/>
<stop offset="0.92" stop-color="#546D4C"/>
<stop offset="0.96" stop-color="#645E33"/>
</linearGradient>
<linearGradient id="paint21_linear_3415_2320" x1="394.92" y1="223.212" x2="236.582" y2="-116.352" gradientUnits="userSpaceOnUse">
<stop/>
<stop offset="0.09" stop-color="#294775"/>
<stop offset="0.37" stop-color="#736A45"/>
<stop offset="0.56" stop-color="#ACE1BF"/>
<stop offset="0.72" stop-color="#50B9B0"/>
<stop offset="0.8" stop-color="#1DA3A8"/>
<stop offset="0.92" stop-color="#546D4C"/>
<stop offset="0.96" stop-color="#645E33"/>
</linearGradient>
<linearGradient id="paint22_linear_3415_2320" x1="396.346" y1="217.572" x2="228.275" y2="-112.283" gradientUnits="userSpaceOnUse">
<stop/>
<stop offset="0.09" stop-color="#294775"/>
<stop offset="0.37" stop-color="#736A45"/>
<stop offset="0.56" stop-color="#ACE1BF"/>
<stop offset="0.72" stop-color="#50B9B0"/>
<stop offset="0.8" stop-color="#1DA3A8"/>
<stop offset="0.92" stop-color="#546D4C"/>
<stop offset="0.96" stop-color="#645E33"/>
</linearGradient>
<linearGradient id="paint23_linear_3415_2320" x1="397.21" y1="211.937" x2="219.891" y2="-107.954" gradientUnits="userSpaceOnUse">
<stop/>
<stop offset="0.09" stop-color="#294775"/>
<stop offset="0.37" stop-color="#736A45"/>
<stop offset="0.56" stop-color="#ACE1BF"/>
<stop offset="0.72" stop-color="#50B9B0"/>
<stop offset="0.8" stop-color="#1DA3A8"/>
<stop offset="0.92" stop-color="#546D4C"/>
<stop offset="0.96" stop-color="#645E33"/>
</linearGradient>
<linearGradient id="paint24_linear_3415_2320" x1="397.608" y1="206.345" x2="211.533" y2="-103.342" gradientUnits="userSpaceOnUse">
<stop/>
<stop offset="0.09" stop-color="#294775"/>
<stop offset="0.37" stop-color="#736A45"/>
<stop offset="0.56" stop-color="#ACE1BF"/>
<stop offset="0.72" stop-color="#50B9B0"/>
<stop offset="0.8" stop-color="#1DA3A8"/>
<stop offset="0.92" stop-color="#546D4C"/>
<stop offset="0.96" stop-color="#645E33"/>
</linearGradient>
<linearGradient id="paint25_linear_3415_2320" x1="397.622" y1="200.82" x2="203.281" y2="-98.437" gradientUnits="userSpaceOnUse">
<stop/>
<stop offset="0.09" stop-color="#294775"/>
<stop offset="0.37" stop-color="#736A45"/>
<stop offset="0.56" stop-color="#ACE1BF"/>
<stop offset="0.72" stop-color="#50B9B0"/>
<stop offset="0.8" stop-color="#1DA3A8"/>
<stop offset="0.92" stop-color="#546D4C"/>
<stop offset="0.96" stop-color="#645E33"/>
</linearGradient>
<linearGradient id="paint26_linear_3415_2320" x1="397.364" y1="195.4" x2="195.256" y2="-93.2388" gradientUnits="userSpaceOnUse">
<stop/>
<stop offset="0.09" stop-color="#294775"/>
<stop offset="0.37" stop-color="#736A45"/>
<stop offset="0.56" stop-color="#ACE1BF"/>
<stop offset="0.72" stop-color="#50B9B0"/>
<stop offset="0.8" stop-color="#1DA3A8"/>
<stop offset="0.92" stop-color="#546D4C"/>
<stop offset="0.96" stop-color="#645E33"/>
</linearGradient>
<linearGradient id="paint27_linear_3415_2320" x1="396.916" y1="190.101" x2="187.545" y2="-87.7489" gradientUnits="userSpaceOnUse">
<stop/>
<stop offset="0.09" stop-color="#294775"/>
<stop offset="0.37" stop-color="#736A45"/>
<stop offset="0.56" stop-color="#ACE1BF"/>
<stop offset="0.72" stop-color="#50B9B0"/>
<stop offset="0.8" stop-color="#1DA3A8"/>
<stop offset="0.92" stop-color="#546D4C"/>
<stop offset="0.96" stop-color="#645E33"/>
</linearGradient>
<linearGradient id="paint28_linear_3415_2320" x1="434.456" y1="189.099" x2="221.127" y2="-74.3396" gradientUnits="userSpaceOnUse">
<stop/>
<stop offset="0.09" stop-color="#294775"/>
<stop offset="0.37" stop-color="#736A45"/>
<stop offset="0.56" stop-color="#ACE1BF"/>
<stop offset="0.72" stop-color="#50B9B0"/>
<stop offset="0.8" stop-color="#1DA3A8"/>
<stop offset="0.92" stop-color="#546D4C"/>
<stop offset="0.96" stop-color="#645E33"/>
</linearGradient>
<linearGradient id="paint29_linear_3415_2320" x1="436.333" y1="183.514" x2="216.864" y2="-68.9562" gradientUnits="userSpaceOnUse">
<stop/>
<stop offset="0.09" stop-color="#294775"/>
<stop offset="0.37" stop-color="#736A45"/>
<stop offset="0.56" stop-color="#ACE1BF"/>
<stop offset="0.72" stop-color="#50B9B0"/>
<stop offset="0.8" stop-color="#1DA3A8"/>
<stop offset="0.92" stop-color="#546D4C"/>
<stop offset="0.96" stop-color="#645E33"/>
</linearGradient>
<linearGradient id="paint30_linear_3415_2320" x1="438.301" y1="177.917" x2="213.196" y2="-63.4781" gradientUnits="userSpaceOnUse">
<stop/>
<stop offset="0.09" stop-color="#294775"/>
<stop offset="0.37" stop-color="#736A45"/>
<stop offset="0.56" stop-color="#ACE1BF"/>
<stop offset="0.72" stop-color="#50B9B0"/>
<stop offset="0.8" stop-color="#1DA3A8"/>
<stop offset="0.92" stop-color="#546D4C"/>
<stop offset="0.96" stop-color="#645E33"/>
</linearGradient>
<linearGradient id="paint31_linear_3415_2320" x1="440.455" y1="172.303" x2="210.219" y2="-57.9319" gradientUnits="userSpaceOnUse">
<stop/>
<stop offset="0.09" stop-color="#294775"/>
<stop offset="0.37" stop-color="#736A45"/>
<stop offset="0.56" stop-color="#ACE1BF"/>
<stop offset="0.72" stop-color="#50B9B0"/>
<stop offset="0.8" stop-color="#1DA3A8"/>
<stop offset="0.92" stop-color="#546D4C"/>
<stop offset="0.96" stop-color="#645E33"/>
</linearGradient>
<linearGradient id="paint32_linear_3415_2320" x1="442.9" y1="166.663" x2="208.032" y2="-52.3542" gradientUnits="userSpaceOnUse">
<stop/>
<stop offset="0.09" stop-color="#294775"/>
<stop offset="0.37" stop-color="#736A45"/>
<stop offset="0.56" stop-color="#ACE1BF"/>
<stop offset="0.72" stop-color="#50B9B0"/>
<stop offset="0.8" stop-color="#1DA3A8"/>
<stop offset="0.92" stop-color="#546D4C"/>
<stop offset="0.96" stop-color="#645E33"/>
</linearGradient>
<linearGradient id="paint33_linear_3415_2320" x1="445.733" y1="160.984" x2="206.73" y2="-46.7771" gradientUnits="userSpaceOnUse">
<stop/>
<stop offset="0.09" stop-color="#294775"/>
<stop offset="0.37" stop-color="#736A45"/>
<stop offset="0.56" stop-color="#ACE1BF"/>
<stop offset="0.72" stop-color="#50B9B0"/>
<stop offset="0.8" stop-color="#1DA3A8"/>
<stop offset="0.92" stop-color="#546D4C"/>
<stop offset="0.96" stop-color="#645E33"/>
</linearGradient>
<linearGradient id="paint34_linear_3415_2320" x1="449.052" y1="155.242" x2="206.41" y2="-41.2446" gradientUnits="userSpaceOnUse">
<stop/>
<stop offset="0.09" stop-color="#294775"/>
<stop offset="0.37" stop-color="#736A45"/>
<stop offset="0.56" stop-color="#ACE1BF"/>
<stop offset="0.72" stop-color="#50B9B0"/>
<stop offset="0.8" stop-color="#1DA3A8"/>
<stop offset="0.92" stop-color="#546D4C"/>
<stop offset="0.96" stop-color="#645E33"/>
</linearGradient>
<linearGradient id="paint35_linear_3415_2320" x1="452.947" y1="149.414" x2="207.157" y2="-35.8008" gradientUnits="userSpaceOnUse">
<stop/>
<stop offset="0.09" stop-color="#294775"/>
<stop offset="0.37" stop-color="#736A45"/>
<stop offset="0.56" stop-color="#ACE1BF"/>
<stop offset="0.72" stop-color="#50B9B0"/>
<stop offset="0.8" stop-color="#1DA3A8"/>
<stop offset="0.92" stop-color="#546D4C"/>
<stop offset="0.96" stop-color="#645E33"/>
</linearGradient>
<linearGradient id="paint36_linear_3415_2320" x1="457.521" y1="143.468" x2="209.068" y2="-30.4992" gradientUnits="userSpaceOnUse">
<stop/>
<stop offset="0.09" stop-color="#294775"/>
<stop offset="0.37" stop-color="#736A45"/>
<stop offset="0.56" stop-color="#ACE1BF"/>
<stop offset="0.72" stop-color="#50B9B0"/>
<stop offset="0.8" stop-color="#1DA3A8"/>
<stop offset="0.92" stop-color="#546D4C"/>
<stop offset="0.96" stop-color="#645E33"/>
</linearGradient>
<linearGradient id="paint37_linear_3415_2320" x1="462.863" y1="137.365" x2="212.234" y2="-25.3946" gradientUnits="userSpaceOnUse">
<stop/>
<stop offset="0.09" stop-color="#294775"/>
<stop offset="0.37" stop-color="#736A45"/>
<stop offset="0.56" stop-color="#ACE1BF"/>
<stop offset="0.72" stop-color="#50B9B0"/>
<stop offset="0.8" stop-color="#1DA3A8"/>
<stop offset="0.92" stop-color="#546D4C"/>
<stop offset="0.96" stop-color="#645E33"/>
</linearGradient>
<linearGradient id="paint38_linear_3415_2320" x1="468.989" y1="131.089" x2="216.652" y2="-20.529" gradientUnits="userSpaceOnUse">
<stop/>
<stop offset="0.09" stop-color="#294775"/>
<stop offset="0.37" stop-color="#736A45"/>
<stop offset="0.56" stop-color="#ACE1BF"/>
<stop offset="0.72" stop-color="#50B9B0"/>
<stop offset="0.8" stop-color="#1DA3A8"/>
<stop offset="0.92" stop-color="#546D4C"/>
<stop offset="0.96" stop-color="#645E33"/>
</linearGradient>
<linearGradient id="paint39_linear_3415_2320" x1="410.738" y1="129.679" x2="153.269" y2="-13.0412" gradientUnits="userSpaceOnUse">
<stop/>
<stop offset="0.09" stop-color="#294775"/>
<stop offset="0.37" stop-color="#736A45"/>
<stop offset="0.56" stop-color="#ACE1BF"/>
<stop offset="0.72" stop-color="#50B9B0"/>
<stop offset="0.8" stop-color="#1DA3A8"/>
<stop offset="0.92" stop-color="#546D4C"/>
<stop offset="0.96" stop-color="#645E33"/>
</linearGradient>
<linearGradient id="paint40_linear_3415_2320" x1="416.228" y1="124.191" x2="157.908" y2="-7.4294" gradientUnits="userSpaceOnUse">
<stop/>
<stop offset="0.09" stop-color="#294775"/>
<stop offset="0.37" stop-color="#736A45"/>
<stop offset="0.56" stop-color="#ACE1BF"/>
<stop offset="0.72" stop-color="#50B9B0"/>
<stop offset="0.8" stop-color="#1DA3A8"/>
<stop offset="0.92" stop-color="#546D4C"/>
<stop offset="0.96" stop-color="#645E33"/>
</linearGradient>
<linearGradient id="paint41_linear_3415_2320" x1="422.779" y1="118.445" x2="164.065" y2="-2.19448" gradientUnits="userSpaceOnUse">
<stop/>
<stop offset="0.09" stop-color="#294775"/>
<stop offset="0.37" stop-color="#736A45"/>
<stop offset="0.56" stop-color="#ACE1BF"/>
<stop offset="0.72" stop-color="#50B9B0"/>
<stop offset="0.8" stop-color="#1DA3A8"/>
<stop offset="0.92" stop-color="#546D4C"/>
<stop offset="0.96" stop-color="#645E33"/>
</linearGradient>
<linearGradient id="paint42_linear_3415_2320" x1="430.482" y1="112.381" x2="171.818" y2="2.58548" gradientUnits="userSpaceOnUse">
<stop/>
<stop offset="0.09" stop-color="#294775"/>
<stop offset="0.37" stop-color="#736A45"/>
<stop offset="0.56" stop-color="#ACE1BF"/>
<stop offset="0.72" stop-color="#50B9B0"/>
<stop offset="0.8" stop-color="#1DA3A8"/>
<stop offset="0.92" stop-color="#546D4C"/>
<stop offset="0.96" stop-color="#645E33"/>
</linearGradient>
<linearGradient id="paint43_linear_3415_2320" x1="439.407" y1="105.924" x2="181.235" y2="6.82177" gradientUnits="userSpaceOnUse">
<stop/>
<stop offset="0.09" stop-color="#294775"/>
<stop offset="0.37" stop-color="#736A45"/>
<stop offset="0.56" stop-color="#ACE1BF"/>
<stop offset="0.72" stop-color="#50B9B0"/>
<stop offset="0.8" stop-color="#1DA3A8"/>
<stop offset="0.92" stop-color="#546D4C"/>
<stop offset="0.96" stop-color="#645E33"/>
</linearGradient>
<linearGradient id="paint44_linear_3415_2320" x1="449.647" y1="98.9991" x2="192.392" y2="10.4197" gradientUnits="userSpaceOnUse">
<stop/>
<stop offset="0.09" stop-color="#294775"/>
<stop offset="0.37" stop-color="#736A45"/>
<stop offset="0.56" stop-color="#ACE1BF"/>
<stop offset="0.72" stop-color="#50B9B0"/>
<stop offset="0.8" stop-color="#1DA3A8"/>
<stop offset="0.92" stop-color="#546D4C"/>
<stop offset="0.96" stop-color="#645E33"/>
</linearGradient>
<linearGradient id="paint45_linear_3415_2320" x1="461.274" y1="91.5368" x2="205.35" y2="13.2905" gradientUnits="userSpaceOnUse">
<stop/>
<stop offset="0.09" stop-color="#294775"/>
<stop offset="0.37" stop-color="#736A45"/>
<stop offset="0.56" stop-color="#ACE1BF"/>
<stop offset="0.72" stop-color="#50B9B0"/>
<stop offset="0.8" stop-color="#1DA3A8"/>
<stop offset="0.92" stop-color="#546D4C"/>
<stop offset="0.96" stop-color="#645E33"/>
</linearGradient>
<linearGradient id="paint46_linear_3415_2320" x1="474.362" y1="83.4519" x2="220.171" y2="15.3423" gradientUnits="userSpaceOnUse">
<stop/>
<stop offset="0.09" stop-color="#294775"/>
<stop offset="0.37" stop-color="#736A45"/>
<stop offset="0.56" stop-color="#ACE1BF"/>
<stop offset="0.72" stop-color="#50B9B0"/>
<stop offset="0.8" stop-color="#1DA3A8"/>
<stop offset="0.92" stop-color="#546D4C"/>
<stop offset="0.96" stop-color="#645E33"/>
</linearGradient>
<linearGradient id="paint47_linear_3415_2320" x1="404.265" y1="91.9745" x2="147.852" y2="32.7776" gradientUnits="userSpaceOnUse">
<stop/>
<stop offset="0.09" stop-color="#294775"/>
<stop offset="0.37" stop-color="#736A45"/>
<stop offset="0.56" stop-color="#ACE1BF"/>
<stop offset="0.72" stop-color="#50B9B0"/>
<stop offset="0.8" stop-color="#1DA3A8"/>
<stop offset="0.92" stop-color="#546D4C"/>
<stop offset="0.96" stop-color="#645E33"/>
</linearGradient>
<linearGradient id="paint48_linear_3415_2320" x1="418.168" y1="84.3533" x2="164.221" y2="34.9915" gradientUnits="userSpaceOnUse">
<stop/>
<stop offset="0.09" stop-color="#294775"/>
<stop offset="0.37" stop-color="#736A45"/>
<stop offset="0.56" stop-color="#ACE1BF"/>
<stop offset="0.72" stop-color="#50B9B0"/>
<stop offset="0.8" stop-color="#1DA3A8"/>
<stop offset="0.92" stop-color="#546D4C"/>
<stop offset="0.96" stop-color="#645E33"/>
</linearGradient>
<linearGradient id="paint49_linear_3415_2320" x1="433.777" y1="75.9802" x2="182.67" y2="36.2094" gradientUnits="userSpaceOnUse">
<stop/>
<stop offset="0.09" stop-color="#294775"/>
<stop offset="0.37" stop-color="#736A45"/>
<stop offset="0.56" stop-color="#ACE1BF"/>
<stop offset="0.72" stop-color="#50B9B0"/>
<stop offset="0.8" stop-color="#1DA3A8"/>
<stop offset="0.92" stop-color="#546D4C"/>
<stop offset="0.96" stop-color="#645E33"/>
</linearGradient>
<linearGradient id="paint50_linear_3415_2320" x1="451.153" y1="66.7551" x2="203.237" y2="36.3156" gradientUnits="userSpaceOnUse">
<stop/>
<stop offset="0.09" stop-color="#294775"/>
<stop offset="0.37" stop-color="#736A45"/>
<stop offset="0.56" stop-color="#ACE1BF"/>
<stop offset="0.72" stop-color="#50B9B0"/>
<stop offset="0.8" stop-color="#1DA3A8"/>
<stop offset="0.92" stop-color="#546D4C"/>
<stop offset="0.96" stop-color="#645E33"/>
</linearGradient>
<linearGradient id="paint51_linear_3415_2320" x1="470.35" y1="56.5757" x2="225.967" y2="35.1956" gradientUnits="userSpaceOnUse">
<stop/>
<stop offset="0.09" stop-color="#294775"/>
<stop offset="0.37" stop-color="#736A45"/>
<stop offset="0.56" stop-color="#ACE1BF"/>
<stop offset="0.72" stop-color="#50B9B0"/>
<stop offset="0.8" stop-color="#1DA3A8"/>
<stop offset="0.92" stop-color="#546D4C"/>
<stop offset="0.96" stop-color="#645E33"/>
</linearGradient>
<linearGradient id="paint52_linear_3415_2320" x1="395.101" y1="72.3854" x2="150.12" y2="59.5472" gradientUnits="userSpaceOnUse">
<stop/>
<stop offset="0.09" stop-color="#294775"/>
<stop offset="0.37" stop-color="#736A45"/>
<stop offset="0.56" stop-color="#ACE1BF"/>
<stop offset="0.72" stop-color="#50B9B0"/>
<stop offset="0.8" stop-color="#1DA3A8"/>
<stop offset="0.92" stop-color="#546D4C"/>
<stop offset="0.96" stop-color="#645E33"/>
</linearGradient>
<linearGradient id="paint53_linear_3415_2320" x1="415.847" y1="62.1482" x2="175.027" y2="57.9453" gradientUnits="userSpaceOnUse">
<stop/>
<stop offset="0.09" stop-color="#294775"/>
<stop offset="0.37" stop-color="#736A45"/>
<stop offset="0.56" stop-color="#ACE1BF"/>
<stop offset="0.72" stop-color="#50B9B0"/>
<stop offset="0.8" stop-color="#1DA3A8"/>
<stop offset="0.92" stop-color="#546D4C"/>
<stop offset="0.96" stop-color="#645E33"/>
</linearGradient>
<linearGradient id="paint54_linear_3415_2320" x1="438.587" y1="50.7137" x2="202.224" y2="54.84" gradientUnits="userSpaceOnUse">
<stop/>
<stop offset="0.09" stop-color="#294775"/>
<stop offset="0.37" stop-color="#736A45"/>
<stop offset="0.56" stop-color="#ACE1BF"/>
<stop offset="0.72" stop-color="#50B9B0"/>
<stop offset="0.8" stop-color="#1DA3A8"/>
<stop offset="0.92" stop-color="#546D4C"/>
<stop offset="0.96" stop-color="#645E33"/>
</linearGradient>
<linearGradient id="paint55_linear_3415_2320" x1="463.351" y1="37.9695" x2="231.731" y2="50.106" gradientUnits="userSpaceOnUse">
<stop/>
<stop offset="0.09" stop-color="#294775"/>
<stop offset="0.37" stop-color="#736A45"/>
<stop offset="0.56" stop-color="#ACE1BF"/>
<stop offset="0.72" stop-color="#50B9B0"/>
<stop offset="0.8" stop-color="#1DA3A8"/>
<stop offset="0.92" stop-color="#546D4C"/>
<stop offset="0.96" stop-color="#645E33"/>
</linearGradient>
<linearGradient id="paint56_linear_3415_2320" x1="385.167" y1="59.7586" x2="154.111" y2="79.9712" gradientUnits="userSpaceOnUse">
<stop/>
<stop offset="0.09" stop-color="#294775"/>
<stop offset="0.37" stop-color="#736A45"/>
<stop offset="0.56" stop-color="#ACE1BF"/>
<stop offset="0.72" stop-color="#50B9B0"/>
<stop offset="0.8" stop-color="#1DA3A8"/>
<stop offset="0.92" stop-color="#546D4C"/>
<stop offset="0.96" stop-color="#645E33"/>
</linearGradient>
<linearGradient id="paint57_linear_3415_2320" x1="412.094" y1="46.3992" x2="186.312" y2="74.1223" gradientUnits="userSpaceOnUse">
<stop/>
<stop offset="0.09" stop-color="#294775"/>
<stop offset="0.37" stop-color="#736A45"/>
<stop offset="0.56" stop-color="#ACE1BF"/>
<stop offset="0.72" stop-color="#50B9B0"/>
<stop offset="0.8" stop-color="#1DA3A8"/>
<stop offset="0.92" stop-color="#546D4C"/>
<stop offset="0.96" stop-color="#645E33"/>
</linearGradient>
<linearGradient id="paint58_linear_3415_2320" x1="441.23" y1="31.4296" x2="220.958" y2="66.3177" gradientUnits="userSpaceOnUse">
<stop/>
<stop offset="0.09" stop-color="#294775"/>
<stop offset="0.37" stop-color="#736A45"/>
<stop offset="0.56" stop-color="#ACE1BF"/>
<stop offset="0.72" stop-color="#50B9B0"/>
<stop offset="0.8" stop-color="#1DA3A8"/>
<stop offset="0.92" stop-color="#546D4C"/>
<stop offset="0.96" stop-color="#645E33"/>
</linearGradient>
<linearGradient id="paint59_linear_3415_2320" x1="472.592" y1="14.7435" x2="258.053" y2="56.4463" gradientUnits="userSpaceOnUse">
<stop/>
<stop offset="0.09" stop-color="#294775"/>
<stop offset="0.37" stop-color="#736A45"/>
<stop offset="0.56" stop-color="#ACE1BF"/>
<stop offset="0.72" stop-color="#50B9B0"/>
<stop offset="0.8" stop-color="#1DA3A8"/>
<stop offset="0.92" stop-color="#546D4C"/>
<stop offset="0.96" stop-color="#645E33"/>
</linearGradient>
<linearGradient id="paint60_linear_3415_2320" x1="392.927" y1="42.0168" x2="179.974" y2="91.1815" gradientUnits="userSpaceOnUse">
<stop/>
<stop offset="0.09" stop-color="#294775"/>
<stop offset="0.37" stop-color="#736A45"/>
<stop offset="0.56" stop-color="#ACE1BF"/>
<stop offset="0.72" stop-color="#50B9B0"/>
<stop offset="0.8" stop-color="#1DA3A8"/>
<stop offset="0.92" stop-color="#546D4C"/>
<stop offset="0.96" stop-color="#645E33"/>
</linearGradient>
<linearGradient id="paint61_linear_3415_2320" x1="426.829" y1="24.1371" x2="220.03" y2="79.5494" gradientUnits="userSpaceOnUse">
<stop/>
<stop offset="0.09" stop-color="#294775"/>
<stop offset="0.37" stop-color="#736A45"/>
<stop offset="0.56" stop-color="#ACE1BF"/>
<stop offset="0.72" stop-color="#50B9B0"/>
<stop offset="0.8" stop-color="#1DA3A8"/>
<stop offset="0.92" stop-color="#546D4C"/>
<stop offset="0.96" stop-color="#645E33"/>
</linearGradient>
<linearGradient id="paint62_linear_3415_2320" x1="463.034" y1="4.24251" x2="262.557" y2="65.5348" gradientUnits="userSpaceOnUse">
<stop/>
<stop offset="0.09" stop-color="#294775"/>
<stop offset="0.37" stop-color="#736A45"/>
<stop offset="0.56" stop-color="#ACE1BF"/>
<stop offset="0.72" stop-color="#50B9B0"/>
<stop offset="0.8" stop-color="#1DA3A8"/>
<stop offset="0.92" stop-color="#546D4C"/>
<stop offset="0.96" stop-color="#645E33"/>
</linearGradient>
<linearGradient id="paint63_linear_3415_2320" x1="382.526" y1="35.9209" x2="184.313" y2="104.172" gradientUnits="userSpaceOnUse">
<stop/>
<stop offset="0.09" stop-color="#294775"/>
<stop offset="0.37" stop-color="#736A45"/>
<stop offset="0.56" stop-color="#ACE1BF"/>
<stop offset="0.72" stop-color="#50B9B0"/>
<stop offset="0.8" stop-color="#1DA3A8"/>
<stop offset="0.92" stop-color="#546D4C"/>
<stop offset="0.96" stop-color="#645E33"/>
</linearGradient>
<clipPath id="clip0_3415_2320">
<rect width="353" height="212" rx="10" fill="white"/>
</clipPath>
<clipPath id="clip1_3415_2320">
<rect width="353" height="212" rx="10" fill="white"/>
</clipPath>
<clipPath id="clip2_3415_2320">
<rect width="34" height="34" fill="white" transform="translate(289 30)"/>
</clipPath>
</defs>
</svg>
