<svg width="39" height="35" viewBox="0 0 39 35" fill="none" xmlns="http://www.w3.org/2000/svg">
<path d="M19.5004 26.7524C18.0372 26.7524 16.6542 26.474 15.3514 25.917C14.0581 25.3506 12.9159 24.5718 11.9247 23.5806C10.9429 22.5894 10.1688 21.4471 9.60242 20.1538C9.04545 18.8605 8.76697 17.4823 8.76697 16.019C8.76697 14.7163 8.99353 13.4797 9.44666 12.3091C9.89978 11.1291 10.5323 10.0623 11.3441 9.10889C12.156 8.15544 13.0905 7.37191 14.1478 6.7583V3.04834C14.1478 2.10433 14.4216 1.36328 14.9691 0.825195C15.5166 0.277669 16.2577 0.00390625 17.1923 0.00390625H21.851C22.8044 0.00390625 23.5502 0.277669 24.0883 0.825195C24.6263 1.36328 24.8954 2.10433 24.8954 3.04834V6.78662C25.9621 7.40967 26.892 8.1932 27.6849 9.13721C28.4779 10.0812 29.0962 11.1385 29.5399 12.3091C29.993 13.4797 30.2196 14.7163 30.2196 16.019C30.2196 17.4823 29.9364 18.8605 29.37 20.1538C28.813 21.4471 28.0389 22.5894 27.0477 23.5806C26.0565 24.5718 24.9143 25.3506 23.621 25.917C22.3277 26.474 20.9541 26.7524 19.5004 26.7524ZM30.7294 6.78662C30.4556 7.06038 30.1205 7.19727 29.724 7.19727C29.337 7.19727 29.0066 7.06038 28.7328 6.78662C28.4685 6.5223 28.3363 6.19189 28.3363 5.79541C28.3363 5.39893 28.4685 5.06852 28.7328 4.8042L30.8285 2.7085C31.1023 2.44417 31.4327 2.31201 31.8197 2.31201C32.2162 2.31201 32.5419 2.44417 32.7968 2.7085C33.0705 2.98226 33.2074 3.31266 33.2074 3.69971C33.2074 4.08675 33.0705 4.41715 32.7968 4.69092L30.7294 6.78662ZM33.972 17.4209C33.585 17.4209 33.2546 17.284 32.9808 17.0103C32.7071 16.7365 32.5702 16.4061 32.5702 16.019C32.5702 15.632 32.7071 15.3016 32.9808 15.0278C33.2546 14.7541 33.585 14.6172 33.972 14.6172H36.9174C37.3044 14.6172 37.6348 14.7541 37.9086 15.0278C38.1823 15.3016 38.3192 15.632 38.3192 16.019C38.3192 16.4061 38.1823 16.7365 37.9086 17.0103C37.6348 17.284 37.3044 17.4209 36.9174 17.4209H33.972ZM28.7328 27.2339C28.4685 26.9601 28.3363 26.6297 28.3363 26.2427C28.3363 25.8462 28.4685 25.5111 28.7328 25.2373C29.0066 24.973 29.337 24.8408 29.724 24.8408C30.1205 24.8408 30.4556 24.973 30.7294 25.2373L32.7968 27.3472C33.0705 27.6115 33.2074 27.9372 33.2074 28.3242C33.2074 28.7207 33.0705 29.0511 32.7968 29.3154C32.5419 29.5892 32.2162 29.7261 31.8197 29.7261C31.4327 29.7261 31.1023 29.5892 30.8285 29.3154L28.7328 27.2339ZM20.9305 30.4482V33.4077C20.9305 33.7853 20.7937 34.111 20.5199 34.3848C20.2461 34.6585 19.9157 34.7954 19.5287 34.7954C19.1416 34.7954 18.8112 34.6585 18.5375 34.3848C18.2637 34.111 18.1268 33.7853 18.1268 33.4077V30.4482C18.1268 30.0706 18.2637 29.7402 18.5375 29.457C18.8112 29.1833 19.1416 29.0464 19.5287 29.0464C19.9157 29.0464 20.2461 29.1833 20.5199 29.457C20.7937 29.7402 20.9305 30.0706 20.9305 30.4482ZM10.2679 27.2339L8.1864 29.3154C7.91264 29.5892 7.58223 29.7261 7.19519 29.7261C6.80815 29.7261 6.47774 29.5892 6.20398 29.3154C5.93966 29.0511 5.8075 28.7207 5.8075 28.3242C5.8075 27.9372 5.93966 27.6115 6.20398 27.3472L8.29968 25.2373C8.56401 24.973 8.89441 24.8408 9.29089 24.8408C9.68738 24.8408 10.0131 24.973 10.2679 25.2373C10.5417 25.5111 10.6786 25.8462 10.6786 26.2427C10.6786 26.6297 10.5417 26.9601 10.2679 27.2339ZM5.04285 17.4209H2.09753C1.71049 17.4209 1.38009 17.284 1.10632 17.0103C0.83256 16.7365 0.695679 16.4061 0.695679 16.019C0.695679 15.632 0.83256 15.3016 1.10632 15.0278C1.38009 14.7541 1.71049 14.6172 2.09753 14.6172H5.04285C5.42989 14.6172 5.76029 14.7541 6.03406 15.0278C6.31726 15.3016 6.45886 15.632 6.45886 16.019C6.45886 16.4061 6.31726 16.7365 6.03406 17.0103C5.76029 17.284 5.42989 17.4209 5.04285 17.4209ZM8.29968 6.78662L6.20398 4.69092C5.93966 4.41715 5.8075 4.08675 5.8075 3.69971C5.8075 3.31266 5.93966 2.98226 6.20398 2.7085C6.47774 2.44417 6.80815 2.31201 7.19519 2.31201C7.58223 2.31201 7.91264 2.44417 8.1864 2.7085L10.2679 4.8042C10.5417 5.06852 10.6786 5.39893 10.6786 5.79541C10.6786 6.19189 10.5417 6.5223 10.2679 6.78662C10.0131 7.06038 9.68738 7.19727 9.29089 7.19727C8.89441 7.19727 8.56401 7.06038 8.29968 6.78662Z" fill="currentColor"/>
</svg>
