<svg width="35" height="34" viewBox="0 0 35 34" fill="none" xmlns="http://www.w3.org/2000/svg">
<path d="M12.8516 27.1748C11.8148 27.1748 11.0229 26.9014 10.4761 26.3545C9.94059 25.8076 9.67285 25.0044 9.67285 23.9448V9.8457C9.67285 8.79753 9.94059 8 10.4761 7.45312C11.0229 6.90625 11.8148 6.63281 12.8516 6.63281H16.3892V14.4258C16.3892 15.0182 16.5487 15.4797 16.8677 15.8101C17.1981 16.1405 17.6595 16.3057 18.252 16.3057H26.062V23.9448C26.062 25.0044 25.7886 25.8076 25.2417 26.3545C24.7062 26.9014 23.9144 27.1748 22.8662 27.1748H12.8516ZM18.8159 14.4258C18.4513 14.4258 18.269 14.2435 18.269 13.8789V6.71826C18.4741 6.75244 18.6849 6.84359 18.9014 6.9917C19.1292 7.13981 19.3685 7.33919 19.6191 7.58984L25.0708 13.0586C25.3328 13.3092 25.5379 13.5485 25.686 13.7764C25.8341 13.9928 25.9253 14.2093 25.9595 14.4258H18.8159ZM2.23877 11.4009C1.12223 11.4009 0.563965 10.8312 0.563965 9.69189V5.53906C0.563965 3.71615 1.03678 2.33757 1.98242 1.40332C2.92806 0.469076 4.32373 0.00195312 6.16943 0.00195312H10.3223C11.4502 0.00195312 12.0142 0.560221 12.0142 1.67676C12.0142 2.80469 11.4502 3.36865 10.3223 3.36865H6.37451C5.57699 3.36865 4.96745 3.57373 4.5459 3.98389C4.13574 4.39404 3.93066 5.01497 3.93066 5.84668V9.69189C3.93066 10.8312 3.3667 11.4009 2.23877 11.4009ZM32.7441 11.4009C31.6276 11.4009 31.0693 10.8312 31.0693 9.69189V5.84668C31.0693 5.01497 30.8529 4.39404 30.4199 3.98389C29.9984 3.57373 29.3945 3.36865 28.6084 3.36865H24.6606C23.5327 3.36865 22.9688 2.80469 22.9688 1.67676C22.9688 0.560221 23.5327 0.00195312 24.6606 0.00195312H28.8135C30.6706 0.00195312 32.0719 0.469076 33.0176 1.40332C33.9632 2.33757 34.436 3.71615 34.436 5.53906V9.69189C34.436 10.8312 33.8721 11.4009 32.7441 11.4009ZM6.16943 33.8569C4.32373 33.8569 2.92806 33.3841 1.98242 32.4385C1.03678 31.5042 0.563965 30.1257 0.563965 28.3027V24.167C0.563965 23.0277 1.12223 22.458 2.23877 22.458C3.3667 22.458 3.93066 23.0277 3.93066 24.167V28.0122C3.93066 28.8439 4.13574 29.4648 4.5459 29.875C4.96745 30.2852 5.57699 30.4902 6.37451 30.4902H10.3223C11.4502 30.4902 12.0142 31.0542 12.0142 32.1821C12.0142 33.2987 11.4502 33.8569 10.3223 33.8569H6.16943ZM24.6606 33.8569C23.5327 33.8569 22.9688 33.2987 22.9688 32.1821C22.9688 31.0542 23.5327 30.4902 24.6606 30.4902H28.6084C29.3945 30.4902 29.9984 30.2852 30.4199 29.875C30.8529 29.4648 31.0693 28.8439 31.0693 28.0122V24.167C31.0693 23.0277 31.6276 22.458 32.7441 22.458C33.8721 22.458 34.436 23.0277 34.436 24.167V28.3027C34.436 30.1257 33.9632 31.5042 33.0176 32.4385C32.0719 33.3841 30.6706 33.8569 28.8135 33.8569H24.6606Z" fill="currentColor"/>
</svg>
